<?xml version="1.0" encoding="UTF-8"?>
<svg id="Layer_1" xmlns="http://www.w3.org/2000/svg" viewBox="0 0 344.24 211.12">
  <defs>
    <style>
      .cls-1 {
        stroke: #232323;
        stroke-miterlimit: 10;
        stroke-width: .75px;
      }

      .cls-1, .cls-2 {
        fill: #232323;
      }
    </style>
  </defs>
  <g>
    <path class="cls-2" d="M57.83,82.56c2.94,0,8.04,0,8.04,8.04v37.6c-2.3-13.01-10.53-24.8-24.13-24.6-8.72.13-17.02,6.96-17.02,16.47,0,13.59,14.76,26.82,14.76,36.34,0,7.48-6.91,9.97-10.99,9.97-3.06,0-8.04-.57-8.04-8.04v-67.74c0-7.48,4.98-8.04,8.04-8.04v-1.13H1.08v1.13c2.94,0,8.04,0,8.04,8.04v67.74c0,8.04-5.1,8.04-8.04,8.04v1.13h27.41c4.65,0,12.35-3.29,12.35-11.89,0-12.12-7.04-19.48-7.04-33.64,0-9.18,3.73-14.08,10.3-14.24,7.9-.2,12.57,2.94,17.4,12.24,2.72,5.24,4.38,13.56,4.38,19.17v19.19c0,8.04-5.1,8.04-8.04,8.04v1.13h18.35v-1.13c-3.06,0-8.04-.57-8.04-8.04v-67.74c0-7.48,4.98-8.04,8.04-8.04v-1.13h-18.35v1.13Z"/>
    <path class="cls-2" d="M109.6,104.88c-16.54,0-32.28,10.76-32.28,32.28s15.75,32.28,32.28,32.28,32.17-10.76,32.17-32.28-15.75-32.28-32.17-32.28ZM111.63,167.75c-13.25,0-22.43-14.95-22.43-34.44,0-18.01,8.84-26.96,18.24-26.96,13.25,0,22.43,15.29,22.43,34.89,0,17.79-8.84,26.51-18.24,26.51Z"/>
    <path class="cls-2" d="M208.6,158.35v-35.68c0-13.14-9.97-17.79-18.8-17.79-9.97,0-17.11,5.1-17.11,15.75,0,6.91,3.74,11.78,3.74,15.75,0,3.4-2.04,4.19-3.63,4.19-7.7,0-7.93-18.69-7.93-34.55h-19.71v1.13c3.06,0,8.04.57,8.04,8.04v43.16c0,8.04-5.1,8.04-8.04,8.04v1.13h27.41v-1.13c-3.06,0-8.04-.57-8.04-8.04v-28.89c1.25,7.59,5.08,13.39,10.18,13.39,4.43,0,6.19-2.86,5.8-6.65-.49-4.85-6.68-9.89-6.68-16.69,0-7.14,5.65-11.8,12.56-11.8,5.55,0,10.88,3.74,10.88,12.58v38.06c0,8.04-4.98,8.04-8.04,8.04v1.13h27.41v-1.13c-3.06,0-8.04-.57-8.04-8.04Z"/>
    <path class="cls-2" d="M328.21,106.01v1.13c3.06,0,7.36.45,4.53,7.36l-17.11,33.87-15.29-33.87c-3.29-7.48,1.36-7.36,4.31-7.36v-1.13h-25.03v1.13c1.92,0,5.44.45,8.61,7.36l21.98,46.78c-4.71,11.55-10.69,15.71-16.58,15.71-2.94,0-4.83-2.34-4.83-5.18,0-7.89,9.97-11.56,9.86-18.58,0-3.17-2.27-5.21-6.12-5.21-4.08,0-8.2,1.78-15.11,7.11l.57.68c4.98-3.97,8.88-5.52,12.62-5.52,2.94,0,5.31,2.03,5.31,4.52,0,7.25-12.7,14.68-12.59,22.95,0,3.85,1.96,6.29,6.15,6.29,6.45,0,15.18-4.64,22.88-23l22.43-46.56c3.06-7.48,6.57-7.36,8.38-7.36v-1.13h-14.95Z"/>
    <path class="cls-2" d="M238.21,124.68c3.49.6,6.5,2.74,9.61,4.37,6.43,3.38,12.64,4.51,18.49,3.54,5.43-1.05,8.42-5.1,8.42-10.17,0-8.71-10.2-17.66-25.25-17.66s-32.84,9.17-32.84,31.49c-.11,31.57,35.16,42.84,55.6,23.79l-.59-.68c-4.99,4.86-11.53,7.02-17.88,7.02-14.24.66-28.54-13.97-25.34-32.51.86-4.83,4.25-10.13,9.77-9.18ZM249.93,106.22c9.44,0,15,6.95,14.97,14.23-.04,5.49-5.67,8.06-10.65,6.54-10.33-3.52-19.74-8.25-25.54,1.41,2.74-15.66,12.63-22.19,21.22-22.19Z"/>
  </g>
  <g>
    <path class="cls-1" d="M85.3,197.97h.88c-.23,3.25-2.18,4.39-5.21,4.39-3.54,0-5.31-1.9-5.48-5.9-.05-.9-.05-1.97,0-3.1.13-3.84,1.97-5.94,5.48-5.94,2.81,0,4.85,1.17,5.09,3.88h-.88c-.25-2.26-1.83-3.31-4.21-3.31-3.02,0-4.36,1.79-4.58,5.15-.09,1.55-.07,1.78,0,3.44.13,3.39,1.56,5.22,4.58,5.22,2.56,0,4.1-.97,4.33-3.82Z"/>
    <path class="cls-1" d="M115.43,201.63h7.42v.66h-8.32v-14.79h.9v14.13Z"/>
    <path class="cls-1" d="M151.2,187.49h.88v14.79h-.88v-14.79Z"/>
    <path class="cls-1" d="M189.74,187.49h.75v14.79h-.93l-8.37-13.89v13.89h-.77v-14.79h.97l8.35,13.8v-13.8Z"/>
    <path class="cls-1" d="M218.84,187.49h.88v14.79h-.88v-14.79Z"/>
    <path class="cls-1" d="M257.91,197.97h.88c-.23,3.25-2.18,4.39-5.21,4.39-3.54,0-5.31-1.9-5.48-5.9-.05-.9-.05-1.97,0-3.1.13-3.84,1.97-5.94,5.48-5.94,2.81,0,4.85,1.17,5.09,3.88h-.88c-.25-2.26-1.83-3.31-4.21-3.31-3.02,0-4.36,1.79-4.58,5.15-.09,1.55-.07,1.78,0,3.44.13,3.39,1.56,5.22,4.58,5.22,2.56,0,4.1-.97,4.33-3.82Z"/>
  </g>
  <path class="cls-2" d="M336.65,71.69l-2.69,6.23h0s0,0,0,0l-.75,1.74-8.74-12.64c-1.19-1.79-1.76-4.65-1.07-6.74.29-.9.97-1.63,1.82-2.05l.04-.02c2.09-1.03,4.54-.09,5.46,2.06.37.87.58,1.91.58,3.04h0s2.85,0,2.85,0c0-4.32-3.25-5.85-6.04-5.85h-.03,0c-2.55,0-4.09,1.08-4.09,1.08-1.55.94-2.63,2.48-3.03,4.34-.51,2.37.12,5.07,1.73,7.4l.39.58-.4.05c-11.64,2.01-10.29,18.34,1.24,18.34,2.81,0,5.88-1.37,8.1-5.48l1.43,2.07c.61.9,2.15,3.11,2.15,3.11h4.07s-.63-.84-2.21-3.11l-3.8-5.5.06-.13,2.47-5.52c1.14-2.55,1.32-2.97,1.32-2.97h-.85ZM329.66,85.32c-3.21,3.51-9.12,2.34-10.63-2.18-1.55-4.64-.67-10.54,4.35-11.62l.15-.02.09.13,7.86,11.34c-.52.78-1.12,1.59-1.81,2.35Z"/>
  <path class="cls-2" d="M253.28,82.06l.05-.17.17-.06c-.14-.14-.17-.38-.07-.72l-.17-.05-.06-.05c.1-.1.25-.18.44-.23l-.11-.11c-.07.08-.24.06-.5-.04.22-.23.27-.4.15-.5l-.49.51.28.05.06.05-.05.06c-.11-.11-.21-.13-.28-.05l.06.05-.17.06-.21.56c-.11.04-.18.08-.22.12.06.05.06.17,0,.33l-.43.45c-.28-.03-.68.09-1.22.36-1.01.26-2.68-.55-3.42-.59-.75-.38-1.43-.78-1.7-1.15l-1.69-2.93c.07-.02.1-.06.08-.13l-.07-.33-.23-.52c.07-.02.1-.06.08-.13-.16-.36-.24-.57-.26-.63-.21-1.27-.29-1.94-.23-2.01l-.11.02c-.03-.14-.01-.23.06-.24-.25-1.77-.36-2.93-.33-3.47l-.11.02-.09-1.92-.11.02c-.03-.13,0-.32.09-.59l-.16-.19.12-.48c-.02-.07-.08-.17-.18-.3l.11-.02c-.27-1.96-.33-3.05-.17-3.28-.03-2.13-.07-3.34-.14-3.63.04-2.53.13-3.81.27-3.84-.05-.9.03-1.38.25-1.43l-.15-.65c.22-.39.25-.93.09-1.62l-.02-.11c.16-.04.32-.34.48-.91.22-1.48.37-2.32.46-2.51.14-1.39.36-2.43.66-3.13l-.16-.19.11-.02c.22-1.73.41-2.73.58-2.99l-.07-.33-.16-.19.11-.02c-.07-.31.16-1.47.7-3.48l-.16-.19c.1-.56.23-.85.37-.89-.16-.69-.09-1.58.2-2.68l-.16-.19c.22-.05.3-.18.25-.4-.07.02-.12-.01-.13-.08l.33-.07c-.23-1.02-.16-1.56.2-1.65l-.05-.22-.16-.19.22-.05c-.04-.75.06-1.16.3-1.21.06-1.1.2-1.97.44-2.62l-.12-.54c.15-.42.33-.65.53-.69.09-.86.18-1.3.27-1.32-.06-.25.09-1.62.44-4.11.02-1.51.12-2.41.3-2.7l-.15-.65.11-.02.25-2.92-.11.02c-.02-.07.01-.12.08-.13l-.16-.19.22-.05-.02-.11-.16-.19c.07-.02.1-.06.08-.13l-.27-1.2v-.57c-.09.02-.18-.23-.3-.74-.34-1.49.15-2.22-1.53-2.57l-.98.22c-.13.03-.22-.03-.27-.17-.07.02-.17.08-.3.18-.51.12-.79.06-.84-.15l-.22.05c-.14.03-.19.16-.14.38-.65.83-.95,1.36-.9,1.58-.61.65-.87,1.21-.77,1.66-.31.4-.67,1.16-1.08,2.3l-.66,1.64-2.55,6.41c-.7,2.2-1.17,3.53-1.39,3.98-1.25,4.27-1.84,6.5-1.8,6.7-.59,2.12-.88,3.37-.87,3.74-.28,1.28-.48,1.94-.59,1.96-.32,2.27-.63,3.79-.91,4.55,0,.69-.07,1.05-.21,1.08-.03.69-.11,1.05-.21,1.08.02.07.06.1.13.08,0,.38-.11.6-.31.64l.02.11.16.19c-.18.04-.26.21-.23.51-.14.24-.23.68-.27,1.32-.01.88-.13,1.52-.37,1.91.03.91-.05,1.38-.25,1.43l.02.11.16.19c-.07.02-.09.29-.04.81l.22-.05-.06.24-.24-.06c.04.16.03.32-.01.46-.24,1.31-.33,2.1-.27,2.35l.07.33.16.19c-.09.02-.13.18-.12.48l.16.19c-.15.03-.21.09-.19.16-.1.16-.17.71-.2,1.65l.16.19c-.1.58-.13.93-.1,1.05.02.07.08.17.18.3l-.22.05.02.11.16.19c-.07.02-.12.14-.14.38.02.07.08.17.18.3.1.44.02.95-.22,1.54.02.07.08.17.17.29,0,.14-.05.25-.22.3l.13.43.14-.04h0s.25,1.09.25,1.09c-.16.29-.13.93.09,1.92l.02.11-.06.24.11-.02c.02.07,0,.19-.04.35.02.07.08.17.18.3-.22.05-.17.76.14,2.14.02.07.08.17.18.3-.13.03-.18.12-.17.27l.17.76.16.19-.11.02c.03.15.12.2.27.17l.02.11-.24-.06.91,4.03c.05.2.17.4.37.6-.07.02-.1.06-.08.13l.02.11c.05.2.17.4.37.6-.07.02-.1.06-.08.13l.07.33,1.34,2.9c1.22,2.2,3.09,4.22,5.61,6.05.42.19.65.33.67.42,1.18.65,2.31.96,3.42.94l.44-.1-.1-.44-.33.07-.02-.11c.1-.21.15-.34.14-.38l.11-.02-.06.24.22-.05-.06.24c.11-.02.28.05.51.23l.2-.62c.14-.03.23.02.27.17.14-.03.19-.16.14-.38l.22-.05c.05.22.18.3.4.25l.05.22-.06.24c.14-.03.23.02.27.17l.22-.05c-.03-.14-.16-.35-.37-.6l.19-.16c.03.15.19.18.48.12.02.07-.01.12-.08.13.03.15.12.2.27.17l.11-.02c.15-.34.3-.53.45-.56l-.02-.11-.16-.19.22-.05c.14-.03.25.1.32.39.11-.05.19-.15.24-.29l.3-.05.05-.06c-.07-.07-.09-.13-.09-.19.05.05.08.12.1.22.23-.15.37-.27.46-.38.02,0,.05.02.07,0,.03-.11.07-.19.11-.23-.03-.03-.07-.02-.1,0l-.03-.03c-.03-.08-.06-.13-.09-.17l.16-.13s.07.01.1.05c.11.11.12.22,0,.33l.06.05.27-.28c-.11-.11-.06-.28.16-.5.04.04.19.03.44-.01.03-.1.08-.2.16-.28l-.17-.05-.06-.05.22-.23.06.05c-.11.11-.07.26.12.44.06.05.19.03.39-.06-.25-.24-.32-.46-.24-.66l.06.05s-.04.08,0,.11l.11-.11c.07-.08.05-.17-.06-.28l.11-.11.28-.06-.11-.11c.18-.12.33-.12.44-.01.05-.06.05-.21-.01-.44-.04.04-.07.04-.11,0,.14-.3.18-.49.1-.56-.08-.08-.05-.23.1-.45l.06.17.06.05.16-.17c.19.18.21.35.07.5.08.07.19.03.33-.12.08.07.06.17-.05.28.08.07.15.07.22,0l.05-.06c.1-.1.06-.25-.12-.44l.22-.23.06.05.06.17.17-.06.05-.06-.17-.16c-.17-.01-.26-.03-.28-.05l-.06-.05s.07-.11.11-.23c.21.09.34.1.39.05l.22-.23-.17-.05.05-.06c.22-.08.39-.18.49-.29-.11-.11-.1-.24.05-.39l-.28-.05ZM242.73,86.98l.11-.02c.03.15-.02.23-.17.27.16.19.29.28.4.25l-.06.24c-.14-.04-.3-.05-.46-.01l-.07-.33c.06-.24.14-.38.25-.4ZM242.35,86.83l-.14.38-.11.02.14-.38.11-.02ZM241.56,85.87s.08.17.21.41l.19-.16c.07.33.16.54.26.63l-.22.05-.07-.33c-.07.02-.1.06-.08.13l-.11.02c-.02-.07.01-.12.08-.13l-.32-.39-.05-.22.11-.02ZM239.73,84.34l.11-.02-.2.62c-.13.03-.22-.03-.27-.17.29-.07.41-.21.36-.43ZM238.68,83.77h.57c-.04.15-.05.26-.03.34l-.11.02-.07-.33-.19.16-.22.05.06-.24ZM238.21,81.71l.07.33-.33.07-.07-.33.33-.07ZM238.37,83.39l-.11.02-.1-.44.11-.02.1.44ZM237.47,80.96l.02.11c.03.15-.02.23-.17.27l-.07-.33.22-.05ZM236.37,81.67c.14-.03.23.02.27.17l.02.11-.11.02c-.13.03-.22-.03-.27-.17l-.02-.11.11-.02ZM235.81,74.13l.07.33c-.13.03-.22-.03-.27-.17l-.02-.11.22-.05ZM235.33,77.55l.05.22c-.16-.04-.28-.05-.35-.04l-.02-.11.33-.07ZM234.86,75.49l.02.11-.44.1-.02-.11.44-.1ZM233.81,77.44c.2-.14.27-.31.23-.51l.44-.1.02.11-.33.07c.02.07.06.1.13.08.02.07-.01.12-.08.13,0,.04.1.13.29.28l.02.11-.22.05-.07-.33-.22.05.02.11.16.19-.28.29c-.02-.07-.08-.17-.18-.3.07-.02.09-.1.06-.24ZM233.61,77.03l-.07-.33c.14-.03.23.02.27.17l.02.11-.22.05ZM234.39,78.45l-.22.05c-.02-.07-.08-.17-.18-.3.24.06.38.14.4.25ZM234.37,77.89l-.02-.11.22-.05.07.33c-.13.03-.22-.03-.27-.17ZM234.46,76.26c-.25-.17-.57-.25-.97-.24.02.07-.01.12-.08.13l-.11.02-.05-.22c.07-.02.12.01.13.08l.39-.32c.32.16.53.22.62.2l.07.33ZM233.16,75.07c.16-.04.3-.11.41-.21l.02.11-.06.24.11-.02c.03.15-.02.23-.17.27l-.05-.22c-.07.02-.1.06-.08.13l-.11.02c-.02-.07.01-.12.08-.13l-.16-.19ZM233.25,73.45l-.1-.44.11-.02.24.06c-.06.24-.14.38-.25.4ZM233.96,72.03c-.04.16-.05.28-.04.35l-.11.02-.07-.33.22-.05ZM233.68,71.29l.02.11c-.07.02-.12-.01-.13-.08l-.19.16-.05-.22.11-.02.24.06ZM233.45,69.28c-.14.03-.2.12-.17.27l-.11.02-.07-.33.33-.07.02.11ZM233.34,65.76l-.06.24c-.13.03-.22-.03-.27-.17l.33-.07ZM232.7,70.48l.11-.02c.02.11.13.24.32.39l-.22.05-.24-.06c.04-.16.05-.28.04-.35ZM232.25,72.07l.06-.24-.11.02c-.03-.13.03-.22.17-.27.1.44.29.62.58.55l.02.11-.11.02c-.38,0-.59-.08-.62-.2ZM232.84,72.63l-.06.24c-.22-.1-.38-.14-.48-.12l-.07-.33c.28.16.49.23.62.2ZM232.09,70.85c-.03-.13.03-.22.17-.27l.07.33-.24-.06ZM232.68,71.4l.02.11-.22.05-.07-.33c.14-.03.23.02.27.17ZM232.28,55.02l.02.11c.03.15-.02.23-.17.27l-.02-.11c-.03-.13.03-.22.17-.27ZM231.94,63.1l.11-.02.1.44-.22.05c.04-.14.05-.3.01-.46ZM231.51,61.71c.14-.03.23.02.27.17l-.33.07-.05-.22.11-.02ZM231.18,59.27l.07.33-.24-.06c-.03-.13.03-.22.17-.27ZM231.25,64.63l-.07-.33.06-.24-.11.02-.02-.11c.14-.03.23.02.27.17l.02.11-.06.24c.07-.02.12.01.13.08l-.22.05ZM231.46,66.53c.07-.02.19,0,.35.03.14-.03.2-.12.17-.27l-.02-.11-.33.07c.16-.28.23-.49.2-.62l.22-.05c.02.07-.01.12-.08.13l.39.71c-.1.21-.14.38-.12.48l-.11.02-.05-.22c-.19.16-.28.29-.25.4l.07.33c.05.22.22.29.51.23l.05.22c-.2-.11-.43-.13-.7-.07l-.02-.11c-.07-.31-.06-.61.02-.92-.07.02-.17-.08-.29-.28ZM231.67,70.49l-.05-.22c.16-.04.3-.11.41-.21l.05.22c-.07.02-.17.08-.3.18l-.11.02ZM232.13,74.05l-.07-.33.33-.07.05.22c-.07.02-.17.08-.3.18ZM233.24,73.91c-.07.02-.12-.01-.13-.08l-.1-.44.11-.02.23.52c.01.4.03.62.04.68l-.11.02-.24-.06c.02.07-.01.12-.08.13l-.33.07c.44-.42.64-.7.61-.83ZM232.78,75.39l-.1-.44c.16.04.28.05.35.03l.02.11c.03.15-.02.23-.17.27l-.11.02ZM232.98,75.8l-.07-.33.22-.05.07.33-.22.05ZM233.05,76.58l.52-.23.05.22c-.16.04-.3.11-.41.21l-.16-.19ZM233.58,78.41c-.02-.07-.08-.17-.18-.3.04-.16.05-.28.04-.35l.22-.05.23.52.02.11c-.07.02-.12-.01-.13-.08l-.19.16ZM234.27,79.97l-.05-.22c.07-.02.12.01.13.08.07-.02.1-.06.08-.13l.24.06.02.11c-.07.02-.12-.01-.13-.08l-.19.16-.11.02ZM234.61,80.46l.22-.05.02.11c.03.15-.02.23-.17.27l-.07-.33ZM234.78,81.68l-.02-.11.22-.05.07.33c-.13.03-.22-.03-.27-.17ZM235.18,81.94l-.1-.44.31-.64-.33.07-.02-.57-.02-.11c-.16.04-.32.03-.46-.01l.06-.24c.07-.02.19,0,.35.04l.19-.16.05.22.22-.05c-.07-.29-.25-.44-.56-.45l-.1-.44c-.14.03-.19.16-.14.38l-.22.05c-.23-.18-.44-.24-.62-.2.12-.48.17-.76.15-.84l.11-.02c.05.22.15.31.29.28l-.05-.22.11-.02.02.11-.06.24s.16.04.38.14c.04,0,.13-.11.28-.29l-.16-.19-.19.16-.07-.33.11-.02c.21.1.38.14.48.12-.08.32-.16.49-.23.51.08.36.39.71.92,1.05-.29.07-.41.21-.36.43l-.24-.06-.11.02.05.22c.33.12.51.23.53.34.14-.03.2-.12.17-.27l-.16-.19.22-.05.07.33c.03.15-.02.23-.17.27-.13.03-.22-.03-.27-.17-.13.11-.23.17-.3.18l.02.11.16.19-.11.02c.08.36.23.52.45.47.04-.16.05-.28.04-.35l.24.06c.02.07-.01.12-.08.13.02.07.06.1.13.08v.57s.23-.05.23-.05l.02.11c-.07.02-.17.08-.3.18l-.37-.6-.19.16c-.05-.22-.18-.3-.4-.25ZM235.82,81.22c-.1.21-.14.38-.12.48l-.11.02-.02-.11.14-.38.11-.02ZM235.8,83.17l-.05-.22c.16-.04.3-.11.41-.21l.1.44c-.27-.01-.42-.02-.46-.01ZM236.47,83.59c-.02-.07.01-.12.08-.13-.02-.07-.08-.17-.18-.3.04-.31.12-.48.23-.51l.33-.07.05.22-.22.05.02.11.22-.05.05.22c-.07.02-.17.08-.3.18.03.15.12.2.27.17-.04.16-.05.28-.04.35l-.22.05c-.05-.22-.15-.31-.29-.28ZM236.86,84.3l-.07-.33.33-.07.05.22c-.07.02-.17.08-.3.18ZM237.23,83.42c-.13.03-.22-.03-.27-.17.07-.02.17-.08.3-.18.07-.02.17.08.29.28-.07.02-.09.1-.06.24l-.11.02-.07-.33c-.07.02-.1.06-.08.13ZM237.34,84.42c.16-.04.32-.03.46.01l.11-.02c-.03-.13-.14-.29-.34-.49l-.02-.11.33-.07.26.63.11-.02.19-.16.1.44c.03.15-.02.23-.17.27-.13-.24-.2-.37-.21-.41l-.22.05.05.22h-.57s-.07-.31-.07-.31ZM237.97,85.65c-.03-.13.03-.22.17-.27l.11-.02.05.22c-.07.02-.17.08-.3.18l-.02-.11ZM239.15,85.84l-.11.02c.07.29,0,.46-.23.51l-.11.02-.05-.22.22-.05-.07-.33-.19.16-.11.02c-.03-.14-.12-.2-.27-.17l-.02-.11.33-.07.05.22c.07-.02.1-.06.08-.13l.24.06.11-.02-.16-.19.11-.02c-.07-.29-.17-.42-.32-.39l-.02-.11.11-.02c.22-.05.35.03.4.25.32.08.51.23.56.45l.11-.02.19-.16c-.06.24-.14.38-.25.4l-.45-.47-.22.05.07.33c.22-.05.34,0,.38.14l.02.11-.11.02c-.15.03-.24-.06-.29-.28ZM240.11,86.54l-.06.24c-.22-.1-.41-.14-.59-.09l-.02-.11.22-.05c-.02-.07-.06-.1-.13-.08-.03-.13.03-.22.17-.27l.22-.05c.14-.03.23.02.27.17l.02.11-.22.05c.02.07.06.1.13.08ZM240.62,86.77l-.33.07.05.22-.11.02-.02-.11c.04-.31.12-.48.23-.51.11-.02.25.1.42.36l-.24-.06ZM241.74,87.66c-.27.06-.38.24-.34.53l-.11.02-.02-.11-.04-.68-.05-.22.22-.05c.03.15.16.19.38.14l-.06.24.22-.05-.06.24c-.07.02-.12-.01-.13-.08ZM242.7,88.36l-.44.1c-.03-.14-.16-.19-.38-.14l-.05-.22c.07-.02.17-.08.3-.18.07-.02.12.05.16.19.07-.02.1-.06.08-.13.13-.03.32,0,.59.09l-.05-.22.11-.02.02.11c.02.07,0,.19-.04.35-.21-.1-.34-.15-.38-.14l.05.22ZM243.17,88.94l-.11.02-.02-.11.06-.24.11-.02c-.04.16-.05.28-.04.35ZM243.77,89.03l-.11.02c-.02-.07.01-.12.08-.13-.02-.07-.06-.1-.13-.08.04-.16.05-.28.04-.35.14-.03.23.02.27.17l-.14.38ZM243.81,88.22l-.07-.33-.11.02.05.22-.22.05.06-.24-.05-.22-.19.16-.11.02-.02-.11c.06-.24.14-.38.25-.4l.24.06-.05-.22c.31.04.48.12.51.23l.02.11-.11.02-.24-.06c.02.07-.05.13-.19.16l.02.11c.13-.03.32,0,.59.09l-.05-.22.11-.02.02.11c.03.13-.13.28-.47.45Z"/>
  <g>
    <path class="cls-2" d="M259.15,76.78s.02-.03.02-.04c-.04-.03-.05-.06-.02.04Z"/>
    <path class="cls-2" d="M294.9,80.68l-.05.03v.02c.06,0,.1-.01.13-.02-.02-.03-.04-.05-.07-.03Z"/>
    <path class="cls-2" d="M295.18,30.43l-.13-.1-.1.13-.13-.1.1-.13.13.1.1-.13c-.08-.06-.15-.18-.23-.37.02-.25,0-.4-.06-.45l.16-.08.2-.26s-.13-.06-.24-.08l-.08-.16-.07-.05-.05.06-.03.18-.06-.05c-.03.18-.02.29.05.34l.1-.13.07.05-.05.06-.16.08c-.04.17,0,.3.11.38l-.05.06c-.09-.06-.16-.05-.23.03l-.06-.05.2-.65-.18-.03c.1-.13.08-.24-.05-.34l.31-.27-.2-.14c-.26.21-.49.24-.69.09l-.1.13c.17.13.21.26.11.38l-.13-.1-.1.13.2.14-.16.08-.05.06c.17.13.23.24.16.32.08.06.15.05.23-.03l.08.16-.31.27.2.14c-.06.07-.13.09-.23.03l-.06-.05c.1-.13.1-.22.02-.29-.09-.06-.18-.03-.28.1l-.2-.14s.07-.05.11-.02c.02-.02.06-.12.13-.3l-.36-.06.15-.19.06.05.08.16.16-.08.05-.06-.06-.05-.18-.03c-.15-.16-.17-.31-.06-.45l-.2-.14c-.18.23-.4.3-.67.21l-.07-.05.1-.13.08.16.15-.19-.13-.1.05-.06c.07-.08.14-.1.23-.03l-.15.19.2.14c.15-.19.13-.44-.05-.73-.04-.03-.1,0-.16.08l-.13-.1.1-.13c.13.1.23.1.29.02.04.03.05.07.02.11l.31.13c.16-.41.21-.78.13-1.1l-.13-.1-.05.06-.03.18c-.09-.06-.16-.05-.23.03l.06.45-.07-.05-.08-.16-.05.06-.03.18-.18-.43-.07-.05-.1.13-.13-.1.1-.13c.17.13.36.1.57-.08-.02-.02-.05-.11-.1-.27l.33-.16-.2-.14-.18-.03c.27-.2.46-.26.56-.19.1-.13.06-.26-.11-.38l.16-.08.1-.13-.2-.14-.05.06.13.1c-.06.07-.13.08-.23.03l.1-.13-.13-.1-.05.06-.03.18-.18-.03.1-.13s-.12-.02-.29-.02l-.07-.05c.04-.05.01-.24-.08-.56l.13.1.1-.13-.26-.19.16-.08.05-.06-.36-.06s0-.17-.11-.38l-.06-.05-.2.26c-.13-.1-.18-.3-.15-.61-.27,0-.46.06-.56.19l-.06-.05.15-.19-.13-.1c-.17,0-.29-.02-.36-.06l-.03.18c-.21,0-.34.05-.39.11l-.08-.16-.07-.05-.1.13-.13-.1.1-.13-.07-.05s-.1.09-.21.14c.09.06.08.16-.02.29l.06.05.18.03-.1.13c-.22-.16-.36-.2-.43-.11-.04-.03-.05-.07-.02-.11l-.09-.02.07-.09c-.05,0-.07-.02-.1-.03.12-.06.23-.13.3-.22l.03-.18c-.1-.07-.2-.11-.31-.13l-.08-.16-.16.08-.1.13c.17,0,.27,0,.29.02-.1.13-.19.29-.28.49-.04-.03-.08-.03-.12.02.2.21.31.33.34.35l-.16.08.06.05.18.03c-.1.13-.23.13-.41,0l-.03.18s.12.06.24.08c.17.14.22.51.16,1.12l-.05.06-.16.08c.09.06.05.2-.12.41l.07.05.1-.13c.08.06.09.13.03.22l-.05.06c-.1-.07-.17-.16-.21-.26l-.06-.05c0,.25-.08.49-.25.72.04.03.08.03.11-.02.01,0,0,.03.02.04l-.03-.03c-.06.07-.04.15.03.22l.08.06c0,.11-.04.23-.11.39l.07.05c.08.06.15.05.23-.03l.06.05c-.16.08-.28.1-.34.05l-.1-.27-.31.27-.03.18c.09.06.18.03.28-.09.08.06.09.13.03.22l-.07-.05c-.15.09-.29.09-.41,0l-.15.19.07.05.1-.13.23.37.05-.06.03-.18s.13.06.24.08l-.03.18-.05.06-.13-.1-.25.32c.2.14.31.26.34.35l-.05.06-.08-.16-.06-.05-.1.13-.08-.16-.15.19c-.06.07-.05.15.03.22.13-.17.26-.21.39-.11l-.1.04-.13-.02s-.02.05-.02.07h-.03s-.05.07-.05.07l.06.05h.06s0,.02,0,.03h0s.11,0,.11,0c-.03.04.04.13.21.26l-.16.08-.02.09s-.02-.03-.04-.05c-.02.02-.03.08-.04.13l-.12-.02.15-.19c-.21-.02-.35-.06-.42-.11l-.05.06.13.1s-.07.05-.11.02c-.03.04-.03.08.02.11l-.05.06-.08-.16-.06-.05s-.03.08.02.11l-.31.27.13.1c.1-.13.21-.14.34-.05-.03.04,0,.09.07.15l-.03.04s0,.02-.02.04c-.26-.19-.44-.22-.54-.09.04.03.09.1.15.21.03-.04.07-.05.11-.02l.13.1-.18.37.18.03.07.05-.1.13c-.24-.13-.4-.14-.47-.05l-.05.06.13.1.1-.13c.08.06.09.13.03.22l-.13-.1-.15.19-.03.18-.13-.1-.05.06.07.05s.12.06.24.08l-.16.08.07.05.29.02-.1.13-.13-.1-.05.06-.03.15s-.01,0-.02,0l-.07-.13-.16.29s-.02-.02-.03-.04l-.06-.05c-.02.12-.05.19-.08.24l.06.05h0s-.06-.04-.06-.04h0s-.25-.2-.25-.2c-.04.06-.03.11,0,.17-.11.07-.21.1-.28.04l-.05.06.29.21s-.03.01-.05.03l-.05.06.05.04-.02.02s-.03-.03-.05-.05h0s-.04-.04-.04-.04c-.02-.03-.04-.07-.07-.12l-.07-.05c-.04.05-.03.11,0,.16l-.07.09-.15-.11s-.03.08.02.11c-.03.04-.1.09-.21.14-.03.03,0,.08.05.13l-.1-.02s.03-.08-.02-.11l-.06-.05s-.03.08.02.11c-.03.04-.07.05-.11.02,0,.02,0,.03,0,.04-.02-.03-.03-.06,0-.09-.12-.02-.2-.05-.25-.08l-.05.06-.03.18-.2-.14-.31.67s-.08-.03-.11.02l-.03.18s-.08-.03-.11.02l.2.14c.1-.13.19-.16.28-.1l.05-.06.03-.18.06.05.08.16c.21-.01.34-.05.39-.11.11.15.13.3.06.45-.04-.03-.05-.07-.02-.11-.24-.18-.52-.21-.83-.11l.38.18-.05.06-.39.11c-.06.07-.05.15.03.22l.06.05c.05-.06.21-.18.47-.35l.2.14-.16.08-.05.06.06.05.29.02.06.05-.25.32c-.1-.07-.2-.11-.31-.13.11-.19.11-.32,0-.4-.13.17-.24.22-.33.16-.03.04-.06.12-.08.24-.09.03-.15.06-.22.08l.03-.14s.08.03.11-.02l.05-.06-.06-.05c-.08-.06-.16-.05-.22.03-.06.07-.04.15.03.22l-.05.06-.08-.16-.05.06c0,.08,0,.14-.01.19,0,0-.02,0-.02.01,0,0,0,.01.01.02-.01.05-.03.09-.05.12l.06.05.05-.06.12.02s-.06.12-.08.23c0,0,0-.02,0-.03l-.02.02-.04-.03-.13.26h0s0,0,0,0l-.05.11c-.09.12-.25.1-.47-.05l-.05.06c.11.08.11.21,0,.4-.04-.03-.08-.03-.11.02-.05.06-.01.19.11.38,0,0-.01,0-.02.01l.07.13-.08.04h.01s-.06.03-.08.07l-.14.19.13.1s0,0,0-.01l.02.02-.1.13c-.1-.07-.2-.11-.31-.13.03-.04.03-.08-.02-.11l-.06-.05-.1.13.26.19s-.07.05-.11.02l-.03.18-.05.06s-.05-.07-.02-.11l-.18-.03.13-.3-.2-.14-.05.06c.13.1.1.27-.1.53-.16.12-.25.19-.26.21.04.03.05.07.02.11-.04-.03-.08-.03-.11.02l.18.43-.1.13c-.09-.06-.18-.03-.28.09l-.07-.05.1-.13-.18-.03.1-.13-.2-.14-.18-.03c.09-.03.21-.14.36-.33l.06.05-.15.19.06.05c.08.06.15.05.23-.03l-.13-.1c.07-.09.14-.1.23-.03l.03-.18-.18-.03-.08-.16s-.09.03-.18-.03c-.03.04-.03.08.02.11-.07.08-.21.18-.43.29.04.03-.05.2-.28.49l.18.03.03-.18.13.1-.2.25c-.1-.07-.2-.11-.31-.13l-.03.18-.13-.1-.18.37.13.1c.1.07.26,0,.49-.24l.06.05c-.06.07-.1.21-.11.42l-.05.06-.1-.27c-.16.12-.25.19-.26.21-.51.04-.84.16-1,.36-.02.12-.05.2-.08.24l.07.05.05-.06s.06-.12.08-.24l.16.32.05-.06.07.05c-.05.06-.25.15-.61.25.04.03.09.1.15.21-.06.07-.18.15-.38.22l.39.29.1-.13.07.05.04.08h-.02s-.03.08-.05.13c-.12-.07-.29-.17-.52-.3l-.03.18-.05.06c-.13-.1-.23-.1-.29-.02l-.05.06c.12.16.19.24.21.26l-.1.13-.24-.48-.3.38-.08-.16c-.07.1-.16.16-.26.21.04.03.09.1.15.21.03-.04.07-.05.11-.02.03-.04.03-.08-.02-.11.11-.05.18-.1.21-.14l.13.1s-.07.05-.11.01l-.03.18-.05.06c-.31.11-.47.15-.51.13l-.2.26.06.05.38-.22.07.05-.15.19s-.04.01-.06.02c0-.02.01-.05.02-.07l-.06-.05-.1.13c-.06,0-.12-.01-.21-.04-.13-.1-.11-.25.05-.46l-.07-.05-.1.13c-.1.13-.21.14-.34.05l-.05.06-.03.18s.08.03.11-.02l.07.05-.16.08-.03.18s-.08-.03-.11.01l.13.1c-.25.06-.42.14-.49.24l-.06-.05-.08-.16c-.08.11-.24.26-.46.46l-.03.18s-.08-.03-.11.01l-.03.18-.08-.16h-.02s.03-.04.07-.06l-.06-.05-.17-.03c-.04.06-.03.12,0,.17-.09.05-.2.11-.38.16l-.05.06.2.14c.09.06.18.03.28-.1l.13.1c-.06.07-.13.08-.23.03-.03.18-.02.29.05.34l-.16.08s-.06-.11-.1-.27l-.13-.1c-.15.19-.27.3-.36.33.04.03.05.07.02.11l.18.03.07.05c-.07.1-.16.17-.26.21l-.03.18-.13-.1.1-.13-.07-.05c-.09-.06-.16-.05-.23.03.1.08.14.15.15.23-.07.01-.15.04-.27.12l-.03.03s-.01-.05.01-.08c-.12-.02-.2-.05-.25-.08-.3.18-.55.2-.75.05l-.1.13s.06.03.11.05l-.33.09-.13-.09.15-.19.08.16.05-.06.03-.18c-.17-.06-.33-.04-.46.06.1.07.07.25-.1.53l-.2-.14-.18.37-.1.13c-.09-.06-.1-.14-.03-.22-.09-.06-.16-.05-.23.03l-.15.19.13.1s.03-.08-.02-.11l.05-.06.08.16c-.05.07-.16.13-.32.2l.48-3.72v-2.27s0-.03,0-.03c.06-.12.13-.24.22-.34h0c.02-.08,0-.17-.02-.31.06.02.09,0,.11-.07l.04-.2-.04-.21.09.02-.04-.21.13-.16-.18-.04.13-.16.04-.19-.18-.04.07-.28.36.09.07-.28-.27-.06.02-.09c.19.04.28,0,.32-.12l.02-.1c-.06-.02-.14-.07-.25-.15l.36-.32.02-.49-.21.05.04.21-.26-.06.67-.83-.36-.08.04-.2.16.14.58-.85-.19-.04c-.04.19-.12.27-.24.24l.02-.1.24-.23-.18-.04c.13-.16.24-.24.34-.22l-.04.19.09.02.02-.1c0-.06,0-.16-.02-.3.12.02.24-.21.35-.71.04-.19,0-.29-.11-.32l.13-.17.17-.74-.04-.21.09.02c.02-.07,0-.1-.07-.12.04-.14.09-.26.19-.35-.01-.23-.01-.36-.01-.39.03-.11.14-.34.36-.71l.02-.09-.09-.02-.21.04.02-.09.25-.24.02-.1-.04-.21c.06.02.09,0,.11-.08l-.04-.21c.12.03.23-.17.33-.61l.12-.46-.05-.22.1.02c.22-1.21.34-2.1.35-2.68.06,0,.09-.02.11-.08l-.04-.21c.06,0,.17-.2.33-.61.03-.49.01-.8-.05-.94-.01.03-.02.06-.03.1,0-.04.01-.07.02-.11,0,0,0,0,.01.01.04-.12.08-.23.11-.33-.01.02-.04.05-.06.07.03-.09.07-.18.12-.25-.02.06-.04.12-.06.18.05-.09.09-.18.11-.26h0c.11-.19.24-.32.32-.34.2-1,.52-1.62.32-2.58.11-1.19.49-1.88.42-2.18l.33-.85-.17.05c-.02-.09-.03-.47-.06-1.15-.06.02-.1-.01-.11-.08l.09-.02-.54-.91c-.24-.57-.41-.83-.52-.8-.23-.56-.55-.96-.96-1.23-.57-.46-.87-.77-.9-.92l-.4-.21c-.72-.57-1.12-.86-1.22-.83-1.11-1.4-2.33-1.9-3.67-1.54-.11.14-.71.45-1.84.92.27,1.29.17,2.66-.3,4.08-.59,2.78-.88,4.24-.86,4.34-.46,2.64-.73,4.05-.8,4.23-.04.65-.19,1.71-.23,2.02l.04.21-.13.16.09.02c-.21.36-.33.59-.35.7-.04.18-.03.38.04.61-.09.11-.15.19-.15.25l-.17-.13c-.05.21-.11.35-.2.45l.09.02c-.02.06-.07.14-.15.26l.04.21c-.06,0-.21.23-.45.68l.09.02-.38,2.02c.06,0,.07.08.04.21l-.16-.14c-.21.61-.35,1.08-.42,1.39-.04.13.01.2.13.23-.02.06-.05.08-.11.07-.21.56-.38.92-.5,1.09-.02.06-.02.11-.04.16-.05.16-.09.33-.14.48-.02.06-.03.12-.05.16-.13.43-.26.77-.38,1.06-.05.13-.09.23-.14.32,0,.02-.02.05-.03.07l.06.61h-.1c-.13.58-.24.86-.3.88-.05.15-.09.29-.12.43-.04.12-.08.23-.11.34-.42,1.38-.35,2.16-.48,2.7,0,.06-.02.11-.03.16h0c-.03.18-.05.29-.04.34-.13.53-.24.96-.34,1.31.17-.57.34-1.19.4-1.46-.09.87-.21,1.57-.38,2.08,0,.03,0,.06-.03.09,0,.07-.04.14-.07.2-.09,0-.24.76-.45,2.23l.07.6c-.26.03-.36.26-.32.65l.02.2c0,.1.05.16.12.18.02.01.06.02.09.01-.02.02-.04.03-.06.05-.29.24-.43.52-.42.83,0,.03,0,.07,0,.1l.19-.03c.03.23-.18.78-.6,1.72.24.09.38.18.4.23,0,.01.02.01.02.02-.02.02-.03.03-.05.04-.14.1-.26.23-.35.35-.02.04-.04.07-.05.1h-.01c-.1.2-.15.39-.12.6.02,0,.04,0,.06,0,.1.01.15.08.17.19v.1s-.2.02-.2.02c.01.06.05.1.12.09.01.07-.01.18-.07.32l.13.19c-.12.09-.21.13-.29.13v.1c.03.21.17.29.44.27-.49.8-.73,1.35-.71,1.62l.11.19-.06.21.11.19c-.05,0-.09.05-.07.11l.23.29.02.2c-.41.49-.6.91-.56,1.29l.39-.04c-.01.64-.05,1.32-.17,2.08h.1s-.14.53-.14.53l.2.08c-.07.62-.14,1.12-.24,1.47l.12.19c-.08,0-.12.16-.16.43h.11s-.16.43-.16.43c.01.13.09.19.22.18.03.28-.06.43-.26.44l.08.71-.14,1.46c.08.13.13.23.13.3l-.08.22c.01.13.09.19.22.18l-.03.63c-.22.41-.32.7-.31.85l.12.19h-.09c0,.09.05.19.13.32-.09.44-.12.72-.1.83.06-.01.1.02.11.09-.07.01-.1.32-.11.94.07-.01.11.02.12.1l.03.31-.09.22c.07-.01.11,0,.12.09v.1c-.1.15-.18.67-.22,1.57l.12.19h-.09c.01.15.1.34.26.61-.06,0-.1.05-.08.11l.03.31.12.19c-.07.01-.13.15-.15.44l.11.21c0,.05-.02.16-.07.3h.1s-.04.51-.04.51l.12,1.12.04.08h-.05c.02.11.03.65.03.65,0,.06,0,.13-.02.21.04,0,.1.03.13.1-.06.09-.12.18-.19.26l.19-.06c.01.06,0,.11-.07.12l.11.14-.02.04c.03.06.06.11.08.17-.01,0-.02,0-.03.02.04.06.11.15.11.15.06.12.1.23.17.34-.08.14-.12.22-.1.24.06-.03.12-.07.18-.1.07.12.14.25.21.36.02.13-.7.2-.82.22.25.94.45,1.39.63,1.37l.11,1.02s.05.17.14.4c-.07.01-.1.05-.09.11.17,0,.28.12.34.39-.2.01-.32.07-.35.17l-.02.08.12.2.02-.03s.01,0,.01-.02l.24-.19.19-.03c.03.3.1.5.2.62.02.02.03.04.05.06.06.06.14.09.22.1.04,0,.06,0,.1,0v.09s-.07.2-.07.2h.09c.13.16.23.3.33.42.19.23.3.34.35.34l-.03.32-.03.21.04.41.31-.03-.08.21h.1c.13-.02.17-.09.16-.23l-.02-.11c-.18.03-.28-.02-.29-.17.13-.01.27.01.38.06.22.17.34.4.38.69l.18-.13h.1s.02.11.02.11c.26.04.41.2.43.47h.1s.18-.15.18-.15l.02.11c.06,0,.16-.05.27-.14l.11-.02s-.06.14-.17.33c.52-.06.8.09.84.44l.09-.02c.02-.24.06-.38.05-.42h.08s.02.09.02.09l-.07.21h.08c.29.31.47.46.55.45l-.02-.21.19-.03.5.05v-.1s-.14-.18-.14-.18l.21.08-.02-.2c.13-.01.2.04.22.18l-.08.21.2.1.2-.02c-.01-.08-.05-.12-.11-.1l-.02-.1c.13-.01.2.07.22.2.71-.16,1.09-.26,1.14-.34v.09c.39-.08.57-.2.55-.35l.5.04,1.09-.84.2.09c.12-.09.25-.13.38-.14.56-.76.97-1.14,1.23-1.16-.07-.13-.12-.26-.14-.41l-.37.04-.27.24-.4.04c-.57.06-1.2-.56-1.86-1.86l.08-.22h-.1c0-.05.02-.1.08-.1,0-.11-.08-.18-.21-.18,0-.08.01-.11.08-.11l-.23-.39c.06-.01.09-.05.08-.11l-.05-.42-.19.03v-.1c-.02-.12.04-.19.16-.23,0-.06-.04-.1-.1-.09-.01-.06.01-.1.08-.11l-.45-.46c.06-.01.07-.21.03-.62.07-.01.1.02.11.08l.19-.12c-.01-.14-.11-.35-.27-.6.11,0,.22-.2.3-.57.01-.03.02-.06.02-.1l-.23-.28-.03.03-.15.1h-.09s-.02-.2-.02-.2c.06-.01.12-.04.17-.06l1.75-13.59c.16.07.41.37.76.92-.54-.52-1.1-1.1,1.28,1.44l8.89,9.23s.88.89,2.59,2.56c.16.21.3.32.42.34.03.08.33.35.89.81.06.13.32.37.78.71.58.61,1.14,1.08,1.7,1.42.03.08.36.36.97.85.02.06.7.58,2.03,1.56l.86.74.29.66.54-.31.2.46c.05.11.15.14.3.07.08-.16.17-.26.26-.32.01.03.1.07.25.1.14-.19.2-.31.18-.36.34.08.56.09.68.02l.22-.13c.48-.45.67-.78.58-1h.14c-.03-.07,0-.24.12-.49.07-.38.14-.58.2-.62l-.11-.1s.04-.05.03-.1h.14s.05-.03.05-.03l-.11-.1-.03-.07.05-.03.06.13.05-.03c-.06-.13-.05-.22.02-.26l-.03-.07-.11.06-.08-.18c-.2.02-.55-.06-.54-.83-.04-.41-.26-.55-.32-.69l-.12-.27c-.11.06-.19.03-.25-.1l.05-.03c.05.08.1.11.17.07l-.03-.07c-.13-.1-.22-.19-.25-.27l-.06-.13.05-.03.09.2.05-.03-.17-.4c-.53-.91-.89-1.31-1.06-1.21v-.16s-.15-.33-.15-.33l-1.7-1.75c-.83-.8-4.31-4.3-4.5-4.4-.17-.4-.37-.53-.58-.41.02.04.01.08-.03.1v-.33s-.07,0-.09-.03l.05-.03s.05.06.08.03l-.03-.07c-.03-.07-.11-.1-.25-.1l-.05.03.03.07.11.1-.11.06-.06-.13v-.16s-.07,0-.09-.04l.05-.03s.05.06.08.04l-.06-.13c-.12.07-.3-.1-.56-.51-.13.08-.39-.19-.76-.81l-.05.03-.08.13-.03-.07-.08.13-.05.03-.03-.07.11-.06-.06-.13-.11.06-.03-.07.02-.26c-.45-.32-.71-.55-.78-.71l-.05.03.06.13c-.07.04-.15-.03-.22-.2l-.05.03s0,.05.01.07c-.14-.17-.26-.32-.37-.46v-.25c-.06.04-.18-.08-.35-.37l-.11.06.02.04s-.05-.06-.07-.08c-.01-.05-.01-.11-.03-.16l-.05.08s-.02-.02-.03-.03l.03-.02-.11-.1v-.16s-.08.04-.08.04c-.01-.03-.02-.06-.03-.08v-.06s-.02,0-.02,0c-.14-.31-.31-.41-.5-.29.02.06,0,.1-.03.13v-.43s-.06,0-.08-.05l.06-.04c.02.06.05.08.09.05l-.03-.09c-.03-.09-.11-.14-.26-.15l-.06.04.03.09.11.14-.12.08-.05-.18v-.22s-.06,0-.08-.05l.06-.04c.02.06.05.08.09.05l-.05-.18c-.13.08-.32-.15-.57-.69-.15.1-.4-.27-.77-1.1l-.06.04-.09.17-.03-.09-.09.17-.06.04-.03-.09.12-.08-.05-.18-.12.08-.03-.09.04-.34c-.47-.44-.73-.77-.8-.97l-.06.04.05.18c-.08.05-.16-.04-.23-.28l-.06.04c.03.09.02.23-.01.43l.18-.12.02.48-.04-.08s-.02.01-.03.03l-.04-.26c-.08.05-.15-.01-.2-.19l-.06.04.05.18-.12.08-.03-.09c-.02-.06,0-.1.03-.13l-.11-.14-.05-.18.08-.9c-.08.05-.2-.12-.37-.5l-.12.08.05.18-.06.04-.03-.09c0-.13,0-.26-.05-.39l-.09.17-.03-.09.06-.04-.11-.14v-.22s-.11.08-.11.08v-.22s-.38.14-.38.14c.03.09.02.23,0,.43l.06-.04.09-.17.22.49.09-.16.05.18-.18.12-.08-.27-.12.29v-.22s-.05-.18-.05-.18c-.07.04-.2,0-.41-.16v-.22s-.02-.09-.02-.09l-.09.16c-.08-.09-.12-.17-.14-.23l-.09.16-.08-.27.12-.08-.03-.09c-.24-.06-.41-.05-.5,0l-.03-.09.12-.08-.03-.09-.11-.14.19-.55-.34-.63h.15s.06-.03.06-.03l-.03-.09c-.04-.13-.25-.21-.64-.22l-.03-.09c-.03-.12,0-.21.07-.25l-.11-.14v-.22s-.11.08-.11.08c.05.18.04.44-.05.77.04-.03.07-.01.09.05l-.06.04-.11-.14.16-.42-.11-.14c-.02-.06,0-.1.03-.13-.08-.09-.12-.17-.14-.23l-.06.04-.09.16c-.03-.1-.15-.15-.33-.15-.01-.04-.04-.08-.07-.14v-.09s-.03-.04-.04-.06l.06.02.04-.13-.02-.15.1.1.06.02.04-.13c-.1-.03-.14-.14-.1-.31.04.01.07,0,.08-.04-.04-.01-.06-.04-.08-.06.03-.02.06-.04.09-.06,0,.04.02.07,0,.12l.06.02.08-.24c.7-.47,1.6-1.09,2.74-1.87.58-.51.92-.72,1.02-.65l.44-.57.02-.29.1-.13.13.1.05-.06.03-.18s.32-.2.84-.68c-.04-.03-.05-.07-.02-.11l.07.05c.44-.36.88-.6,1.29-.75l-.1.13.13.1c.39-.23.61-.4.69-.49l.05-.46.25-.32,2.79-2.55s-.05-.07-.02-.11l.69-.44c-.03.07-.03.13.04.18l.06.05.28-.38c.05-.09.04-.16-.03-.22l-.16.08-.03.04s.02-.03.02-.06l.26-.21.03-.18s.17-.04.38-.22c-.02-.02-.05-.11-.1-.27l.05-.06s.05.07.02.11c.11.08.31,0,.61-.25l.03-.18s.08.03.11-.02l.15-.19c-.26-.19-.51-.14-.74.16.04.03.05.07.02.11-.04-.03-.08-.03-.12.02l-.03.18c-.05-.04-.21.08-.47.35.04.03.05.07.02.11-.2.06-.31.07-.34.05l-.13-.1s.06-.12.08-.24c.04.03.08.03.11-.02.11-.14.17-.26.18-.37l.36-.33.3-.38c.2.14.42.08.67-.21.01-.11.06-.21.13-.3l.13.1c.09.06.06.18-.07.35l.2.14c.22-.19.34-.3.36-.33l.18-.37c.13.1.57-.34,1.33-1.32l.54-.7-.07-.05c-.08.11-.22.11-.41,0l-.06-.05c.27-.4.33-.65.18-.77.3-.38.6-.46.9-.24l.25-.32s-.13-.06-.25-.08c-.04-.03-.04-.13.02-.29.28-.26.46-.36.54-.3l.08.16s.09-.03.18.03l.15-.19-.06-.05s-.12-.02-.29-.02c-.09-.06-.1-.14-.03-.22l.05-.06c.1.07.2.11.31.13.2-.26.21-.45.03-.57l.2-.26c.1.07.25.05.46-.06l.05-.06c-.17-.13-.23-.23-.16-.32l.34-.45c.17.13.38.04.61-.25h-.41s-.2-.15-.2-.15l.05-.06c.07-.08.21-.05.42.11l.02-.29.38.18-.25.32.06.05c.07-.1.16-.16.26-.21-.09-.06,0-.27.26-.61-.12-.02-.2-.05-.25-.08l-.1.13.13.1-.05.06-.2-.14c.06-.07.07-.23.05-.46l.1-.13.16-.08s.09.1.15.21l.07.05c.07-.09.03-.18-.1-.27.07-.09.14-.1.23-.03.09-.12.15-.28.17-.48.04.03.08.03.11-.02l.15-.19c.07-.09.06-.16-.03-.22l-.07-.05-.18-.03s-.02-.11-.15-.21l.39-.51c.22.16.38.18.47.05.08-.11.25-.55.51-1.32l.2-.26-.2-.14.34-.45c-.08-.34-.06-.59.07-.75l.34-.45ZM289.43,23.8l-.07-.05s0,0,0,0l.07.05h-.01ZM285.71,33.34s-.07-.02-.11-.06l-.03.18c-.06.07-.13.09-.23.03l-.07-.05-.08-.16c.31-.08.48-.13.54-.18-.02.1-.03.18-.01.23ZM270.58,63.78c.07-.02.17.07.31.29-.08-.07-.19-.17-.31-.29ZM270.98,64.12s-.02.01-.08-.04l.08-.12.05-.03.03.07-.11.06.03.07ZM271.27,62.29l-.03-.07.04-.03v.09ZM271.98,45.72v-.07s.02.04.03.05l-.03.02ZM272.91,44.99v-.05s.03.02.03.02l-.03.04ZM282.71,67.29c.04.09.15.19.33.3-.06.01-.11,0-.17-.01-.08-.1-.14-.18-.21-.27l.04-.02ZM282.6,67.19v.04s-.01-.02-.02-.03h.02ZM277.8,62.04v-.03s.02,0,.04.03c-.02.02-.05.04-.05.07l-.05.03v-.06s.07-.04.07-.04ZM280.22,40.87l-.04-.03.03-.03s.06.08.06.12c-.01-.02-.02-.04-.04-.06ZM282.39,39.2s-.03.01-.04.03l-.05.06s.03,0,.04,0c-.02.05-.05.09-.06.14-.2.06-.31.07-.34.05l.15-.19.13.1.03-.18s-.08-.03-.11.02l-.07-.05c.16-.08.28-.1.34-.05-.02.02-.02.05-.03.07ZM283.88,36.71l-.04.02.07-.09h.02s-.05.08-.05.08ZM285.24,35.21l.13.1-.39.11.07.05.18.03-.33.16s.05.07.02.11c0-.01-.01-.03-.02-.04l-.06-.05-.09.13s-.01.04-.02.06l-.03-.06-.05.06-.03.18-.13-.1.38-.62s.09-.03.18.03l.3-.38.2.14-.28.1ZM286.19,33.35s-.08,0-.11-.02c-.03.04-.03.08.02.11-.06.07-.13.09-.23.03l-.07-.13.04-.05.03-.17.06.04-.05.02.13.1c.14,0,.24,0,.33-.02,0,0,0,0,0,.01l-.15.08ZM286.46,33.32s-.02-.04-.04-.06c.09-.01.15-.03.16-.06l.07.05c-.07.04-.13.05-.19.07ZM287.77,31.27c.2-.19.34-.25.44-.17-.03.04-.06.12-.08.24-.07-.05-.19-.07-.36-.06ZM288.87,41.38l-.1.13-.16.08-.08-.16-.18.37c-.11.05-.18.1-.21.14l-.26-.19c.06-.07.1-.21.12-.41l.16-.08.13-.3c.13.1.23.1.29.02.12.22.22.36.29.42ZM290.46,24.46l-.1-.27-.05.06-.03.18s-.05-.07-.02-.11l-.18-.03-.06-.05.2-.26.08.16c.18,0,.27,0,.29.02-.07.1-.12.2-.13.3ZM292.24,25.47c-.16.08-.28.09-.34.05.13-.17.11-.32-.06-.45-.03.04-.07.05-.12.02l-.08-.16c.11-.05.18-.1.21-.14l.07.05.18.43.15-.19.08.16.1-.13.07.05-.15.19-.13-.1-.1.13.18.03-.05.06ZM293,30.33l.05-.06c.07-.08.14-.1.23-.03.02-.02.02-.12.02-.29.04.03.12.06.24.08.13.23.23.4.31.53l-.18-.03-.07-.05-.08-.16c-.13.17-.31.18-.52.01ZM293.85,30.95c-.24.09-.39.11-.46.06.13-.17.15-.29.07-.35l.05-.06.26.19c.02-.12.05-.2.08-.24.08.12.12.19.15.21l-.15.19Z"/>
    <path class="cls-2" d="M287.67,30.73s-.1.09-.2.14l.13.09.14-.19-.06-.05Z"/>
    <path class="cls-2" d="M289.16,25.36l-.19-.14-.05.06c-.06.07-.04.15.03.22.03-.04.1-.09.2-.14Z"/>
  </g>
  <g>
    <path class="cls-2" d="M192.03,65.15l-.02-.11c-.02-.13-.1-.19-.26-.19l.05.33.22-.03Z"/>
    <path class="cls-2" d="M192.24,59.53l-.22.03.05.33.11-.02c-.01-.07,0-.19.06-.35Z"/>
    <path class="cls-2" d="M192.35,75.26l-.03-.22c-.02-.13-.1-.19-.25-.19l.03.22c.02.15.11.21.25.19Z"/>
    <path class="cls-2" d="M191.65,63.38l-.02-.11c-.13.02-.19.1-.19.26l.02.11c.15-.02.21-.11.19-.26Z"/>
    <path class="cls-2" d="M191.6,69.32c-.02-.17,0-.32.05-.46l-.22.03c.02.17,0,.32-.05.46l.22-.03Z"/>
    <path class="cls-2" d="M191.89,73.61c-.13.02-.19.1-.19.26l-.24-.08c.01.07-.01.19-.06.35l.02.11c.41-.31.61-.53.59-.66l-.11.02Z"/>
    <path class="cls-2" d="M192.09,72.67c-.03-.22-.12-.32-.27-.3,0,.04.06.18.18.43l.11-.02-.02-.11Z"/>
    <path class="cls-2" d="M191.76,75.11l.11-.02-.06-.45-.3.27c.02.15.11.21.26.19Z"/>
    <path class="cls-2" d="M191.6,67.72l.21-.14c-.01-.07-.05-.11-.13-.1.1-.34.15-.57.13-.7l-.34.05c.02.17,0,.32-.05.46.07-.01.13.13.18.43Z"/>
    <path class="cls-2" d="M191.59,64.53l.22-.03.21-.14-.14-.21.22-.03-.03-.22-.11.02-.21.14c-.01-.07-.05-.11-.13-.09l-.11.02c.01.07.05.11.13.09.01.07-.01.19-.06.35l.02.11Z"/>
    <path class="cls-2" d="M191.53,70.36c.07-.01.11-.05.09-.13l.24.08.11-.02c-.03-.2-.14-.42-.32-.64l.11-.02c-.02-.11-.18-.2-.5-.27.01.08-.01.19-.06.35l.02.11c.07-.01.11-.05.1-.13.11-.02.24.12.4.4l-.22.03.03.22Z"/>
    <path class="cls-2" d="M191.71,61.43c.13-.02.22-.22.25-.61l-.02-.11c-.14.06-.27.27-.37.62.07-.01.12.02.13.1Z"/>
    <path class="cls-2" d="M191.98,74.28l-.11.02-.21.14c.02.15.11.21.26.19-.01-.07.01-.19.06-.35Z"/>
    <path class="cls-2" d="M179.71,66.48c-.13.02-.19.1-.19.26l.27.3c.15-.02.21-.11.19-.26l-.02-.11c-.02-.13-.1-.19-.26-.19Z"/>
    <path class="cls-2" d="M194.77,51.07s.14-.1.3-.27c-.1-.14-.15-.24-.16-.32l-.11.02c.02.17,0,.32-.05.46l.02.11Z"/>
    <path class="cls-2" d="M195.91,45.54l-.11.02-.03-.22-.11.02c.01.08-.01.19-.06.35.02.11.18.2.5.27l.08-.24-.22.03.18-.37-.02-.11-.22.03.03.22Z"/>
    <path class="cls-2" d="M193.08,57.47c.01.07-.01.19-.06.35l.11-.02.21-.14c-.02-.13-.1-.19-.26-.19Z"/>
    <path class="cls-2" d="M196.87,45.06l.02.11.21-.14-.05-.34-.11.02c.01.07-.01.19-.06.35Z"/>
    <path class="cls-2" d="M195.68,44.78c-.21.14-.3.27-.29.38l.02.11c.21-.15.3-.27.29-.38l-.02-.11Z"/>
    <path class="cls-2" d="M195.77,47.73l.11-.02-.05-.34-.22.03c.1.14.15.25.16.32Z"/>
    <path class="cls-2" d="M195.67,46.26l.02.11c.15-.02.21-.11.19-.26l-.02-.11c-.13.02-.19.1-.19.26Z"/>
    <path class="cls-2" d="M197.07,42.53c.07-.01.19.01.35.06l-.05-.33-.33.05.03.22Z"/>
    <path class="cls-2" d="M143.13,41.69l.25-.03-.07-.48-.25.03.02.12.16.22c-.08.01-.12.06-.11.14Z"/>
    <path class="cls-2" d="M201.33,85.24l-.14-.21c-.17.02-.67.21-1.52.56-.18-.03-.67-.04-1.48-.01.01.07-.02.12-.1.13l-.11.02c-.02-.15-.27-.27-.73-.35l-.21.15c-.01-.07.02-.12.1-.13-.02-.13-.1-.19-.26-.19l-.11.02c.01.07.05.11.13.1l.02.11c-.13.02-.22-.04-.26-.19l-.45.06-.02-.11.22-.03-.02-.11c-.15.02-.23,0-.24-.08l-.54-.61-.56.08c.02.11-.04.27-.16.48l-.11.02.25-.61-.03-.22-.14-.21c.15-.02.21-.11.19-.26-.3.04-.47-.08-.51-.38.07-.01.11-.05.1-.13l-.11.02-.21.14c-.01-.07-.05-.11-.13-.09-.01-.07.02-.12.09-.13l-.05-.33-.11.02c.01.07-.01.19-.06.35.03.22.16.32.38.29l.03.22-.22.03-.43-.62c.21-.14.3-.27.29-.38-.07.01-.18.06-.32.16l-.11.02c-.01-.07.02-.12.09-.13-.03-.22-.16-.32-.38-.29l-.02-.11c.07-.01.18-.06.32-.16-.02-.13-.1-.19-.26-.19l-.22.03.02.11-.56.08-.21.14c-.01-.07.02-.12.1-.13-.01-.07-.05-.11-.13-.09l-.02-.11.24.08.11-.02.21-.14.02.11c.15-.02.21-.11.19-.26l-.22.03-.03-.22.22-.03.03.22.22-.03-.29-.41.22-.03c-.1-.14-.15-.25-.16-.32l-.33.05.14.21c-.07.01-.18.06-.32.16l-.11.02c-.01-.08.02-.12.09-.13l-.14-.21c.22-.03.32-.12.3-.27l-.14-.21.22-.03-.31-.53.34-.05-.03-.22-.22.03.08-.24c-.08.01-.19-.01-.35-.06.01.07-.02.12-.09.13l-.02-.11c-.02-.15.08-.24.3-.27-.02-.15-.13-.4-.34-.75.15-.02.2-.22.14-.59-.02-.13-.1-.19-.26-.19l-.11.02.05.34c.07-.01.11-.05.09-.13l.11-.02c-.19.26-.26.53-.22.83l-.11.02-.37-.17.08-.24.24.08-.05-.33-.11.02-.21.14.38-.51-.03-.22-.3.27c-.02-.13.03-.33.14-.59-.07.01-.12-.02-.13-.1l.22-.03-.14-.21-.02-.11c-.02-.13.05-.22.19-.26l-.4-.4.08-.24-.24-.08.17-.37-.03-.22-.21.14-.02-.11.25-.61c-.07.01-.13-.13-.18-.43l-.11.02.05.34c-.13.02-.22-.04-.26-.19l-.02-.11.11-.02c.24-.34.4-.51.49-.53-.01-.07-.05-.11-.13-.09l-.05-.34.11-.02.05.34.11-.02.21-.15c.01.07.05.11.13.1l-.03-.22c-.22.03-.35-.03-.37-.17l-.45.06c.01.07.05.11.13.09l.02.11c-.13.02-.22-.04-.26-.19l.08-.24c-.13-.21-.25-.31-.38-.29.19-.29.25-.61.2-.94l.11-.02.11.78-.22.03.14.21.21-.15.02.11-.08.24.33-.05-.06-.45-.14-.21c.06,0,.11-.13.17-.37l-.05-.33.08-.24c-.08.01-.13-.1-.16-.32l-.11.02.03.22-.11.02-.02-.11.08-.24.24.08.11-.02-.05-.33c-.11.02-.27-.04-.48-.16-.01-.07.01-.19.06-.35l-.14-.21c.07-.01.13-.13.17-.37l-.22.03-.02-.11c.17-.02.29-.19.38-.51l-.22.03.08-.24-.22.03-.08-.56.11-.02.05.33s.14-.1.3-.27l-.14-.21.22-.03-.02-.11-.22.03-.05-.34.22-.03-.05-.33.08-.24c-.01-.07-.18-.16-.5-.27.04.3-.01.46-.16.48l-.03-.22.27-.5.24.08.11-.02-.05-.34.24.08.22-.03-.32-.64c.07-.01.11-.05.1-.13l-.02-.11-.22.03.05.33-.11.02-.02-.11c-.05-.37.07-.58.37-.62-.02-.15-.15-.21-.37-.17l-.03-.22.11-.02.24.08c-.04-.24-.03-.43.03-.58l-.11.02c-.01-.07,0-.19.06-.35l-.02-.11c-.13.02-.19.1-.19.26l-.11.02.08-.24-.05-.33-.22.03c.05-.16.07-.28.06-.35l.24.08c.04-.27.05-.43.05-.46l.22-.03.03.22.11-.02-.02-.11c-.03-.22-.2-.31-.5-.27l-.05-.34c.15-.02.23.04.25.19.15-.02.21-.11.19-.26l.51.38-.03-.22-.14-.21c.07-.01.11-.05.1-.13l-.02-.11-.11.02-.21.14c-.04-.08-.08-.15-.12-.21l.2-.03c-.09-.14-.15-.24-.16-.32l-.11.02.04.27c-.15-.24-.28-.35-.39-.33l-.02-.11.11-.02c.11-.7.21-1.06.3-1.07l.03.22c.15-.02.21-.11.19-.26l-.02-.11c-.37.05-.58-.03-.61-.25l-.11.02-.21.14c-.02-.13.15-.27.51-.42l-.08.24.02.11.21-.14.11-.02-.08.24c.07-.01.19.01.35.06l.08-.24-.11.02-.11.02c-.01-.07.02-.12.09-.13-.02-.13-.1-.19-.26-.19,0-.05,0-.12.02-.2-.02.08-.04.12-.04.09l-.13-.19-.31.25-.11.02-.02-.11c.15-.02.21-.15.18-.37l.24.08s0,0,0,0l-.02-.11.11-.02v.07c.07-.04.11-.1.1-.2l.12.04c-.03.12-.05.21-.07.29l-.02-.11-.1.08.02.16h.07s.01-.05.02-.07c0,.02-.01.05-.02.06l.21-.03.07.1s.03-.02.05-.03c-.02.04-.04.08-.04.14l.02.11.64-.32-.02-.11-.33.05-.02-.11.11-.02-.03-.22-.14-.21.11-.02c-.01-.07-.05-.11-.13-.1.13-.13.22-.23.3-.33l.12.04.08-.24h-.06s.04-.08.04-.11c0,0,0,0,0,0h0s0,0,0,0c-.11-.16-.22-.24-.31-.26l.04-.04-.03-.22.22-.03.03.22.11-.02c-.02-.15.04-.23.19-.26l-.02-.11s-.08,0-.12,0v-.09c.27-.04.46-.03.56.03-.01-.07.06-.12.21-.14-.01-.09-.15-.17-.37-.23l-.02-.17c-.15.08-.25.16-.32.23-.03.02-.06.03-.1.06l.09-.17s.07-.07.07-.13l.11-.2-.11.02c-.09.01-.13.07-.16.14h-.03s-.03.07-.04.11l-.2-.07.25-.61c-.05,0-.12-.06-.19-.16l.03-.15.11-.02c.06.09.12.17.17.24l.15-.4-.03-.23-.21.14-.03-.22.34-.05c.15-.02.23.04.25.19,0,0-.02.01-.02.02-.08-.07-.15-.11-.21-.1l.04.28.05.02c-.07.13-.15.3-.23.49.11.18.18.3.19.34l.11-.02-.02-.11c-.01-.07-.07-.18-.16-.32-.03-.19.11-.32.4-.4-.05-.07-.09-.11-.14-.15v-.06s.2-.14.2-.14l.24.08-.05-.34c-.07.01-.18.07-.32.16l-.11.02-.03-.22.54-.19c-.1-.14-.15-.24-.16-.32l-.21.14c-.01-.07,0-.19.06-.35l-.14-.21c-.07.01-.11.05-.1.13l-.11.02.08-.24.24.08.22-.03-.27-.3-.02-.11.34-.05-.02-.11c-.15.02-.24-.04-.26-.19l-.11.02c.03.22-.1.36-.4.4l.02.11.14.21c-.13.02-.21-.04-.25-.19l.08-.24c-.07.01-.12-.02-.13-.09-.02-.13.04-.22.19-.26l.11-.02-.08.24.02.11c.29-.5.52-.76.69-.78l.03.22c-.22.03-.33.12-.3.27.07-.01.18-.06.32-.16.22-.03.36.1.4.4l.33-.05-.02-.11c-.09.01-.3-.11-.62-.37-.05-.37.03-.57.25-.61l-.02-.11-.22.03-.06-.45c.15-.02.21-.14.17-.37l.22-.03-.08.24.02.11c.15-.02.27-.27.35-.73l-.11.02-.21.14c-.01-.07.02-.12.1-.13l-.14-.21.33-.05.03.22.11-.02c.15-.02.2-.18.16-.48.07-.01.12.02.13.1.14-.1.24-.15.32-.16l-.02-.11c-.22.03-.35-.03-.37-.17.22-.03.35-.2.38-.51-.07.01-.14-.17-.19-.54l-.11.02c.01.07-.01.19-.06.35l.14.21-.11.02c-.09.55-.31.88-.65,1.01l.08-.24-.11.02-.54.19.14.21s-.05.16-.18.37l.1.67-.22.03c-.05-.34-.12-.55-.21-.65.07-.01.11-.05.1-.13l-.34.05-.02-.11c.17-.02.41-.21.72-.56-.01-.07-.06-.11-.13-.1l.16-.48.11-.02-.08.24.03.22.21-.14.24.08c.24-.41.36-.66.35-.74-.01-.07-.09-.1-.24-.08l.16-.48-.02-.11-.22.03s-.01.19-.05.46l-.11.02-.03-.22-.11.02c.02.17-.22.58-.73,1.25l.14.21c-.13.02-.22-.04-.26-.19l.27-.5-.03-.22-.14-.21c.14-.1.24-.15.32-.16l-.02-.11-.22.03-.03-.22.11-.02c.15-.02.23.04.26.19l-.08.24c.07-.01.12.02.13.1.15-.02.21-.11.19-.26l-.06-.45-.22.03-.03-.22.08-.24.24.08-.02-.11-.27-.3c-.02-.13.05-.21.19-.26-.01-.07-.05-.11-.13-.09l-.02-.11c.15-.02.25.15.3.53l.11-.02c-.04-.3.07-.54.35-.73-.02-.13-.1-.19-.25-.19l-.02-.11c.07-.01.12.02.13.1l.4-.4c-.02-.13-.1-.19-.26-.19l.03.22c-.13.02-.22-.04-.26-.19.15-.02.21-.11.19-.26.07-.01.12.02.13.1l.21-.14c-.01-.07-.05-.11-.13-.09l-.02-.11c.15-.02.23.04.26.19l-.08.24.11-.02c.01.07-.02.12-.1.13l.23.76c.15-.02.21-.11.19-.26.04,0,.16.05.37.17.16-.18.34-.28.53-.3l-.02-.11-.5-.27-.02-.11c-.02-.13.04-.22.19-.26-.02-.13-.1-.19-.26-.19l-.11.02c.01.07.05.11.13.09l-.16.48.11-.02c.01.07-.02.12-.1.13l.14.21-.22.03-.02-.11.08-.24c-.07.01-.12-.06-.14-.21l-.21.14-.05-.34.27-.5-.08-.56.22-.03-.3-.53c.07-.01.12.02.13.1.15-.02.21-.11.19-.26-.22.03-.35-.06-.38-.29.07-.01.12.02.13.1.15-.02.21-.11.19-.26l.22-.03.02.11-.22.03.03.22c.22-.03.35.06.38.29.15-.02.21-.11.19-.26l-.14-.21c.07-.01.12.02.13.09l.21-.14.06.45-.34.05.03.22c.07-.01.11-.05.1-.13l.24.08.11-.02-.1-.67.11-.02.24.08-.06-.45c.25-.4.36-.68.33-.85l.48.16c-.01-.07.06-.12.21-.14l-.02-.11-.45.06-.03-.22.03-.58c-.07.01-.12-.02-.13-.09l.11-.02-.27-.3.11-.02.24.08.08-.24-.22.03-.05-.34c.07-.01.12.02.13.1.15-.02.21-.11.19-.26l-.33.05c-.02-.13.04-.22.19-.26l.24.08.16-.48-.02-.11-.11.02-.21.14c.12-.34.28-.55.48-.64l-.31-.53.21-.14-.15-.21.08-.24-.11.02-.02-.11s.16.05.37.17l.11-.02-.66-.59.5.27-.03-.22c.36-.26.54-.63.53-1.1l-.24-.08c.01.07-.01.19-.06.35l.14.21c-.16-.05-.28-.07-.35-.06l-.03-.22.22-.03-.02-.11-.22.03.08-.24.24.08-.06-.45c.08-.01.12.02.13.09.15-.02.21-.11.19-.26l-.03-.22c-.07.01-.19,0-.35-.06-.28.15-.41.33-.38.51l-.24-.08c-.02-.17.14-.31.51-.42-.01-.07-.05-.11-.13-.1l-.02-.11.24.08.4-.4c-.01-.07-.05-.11-.13-.1.06-1.13.15-1.86.25-2.2l-.22.03-.02-.11.11-.02c-.04-.28-.1-.46-.19-.54l.08-.24c-.03-.19-.11-.48-.24-.88l.05-.46c-.53-1.84-1.14-3.16-1.83-3.96.07-.01.11-.05.1-.13l-.02-.11c-.02-.13-.1-.19-.26-.19l-.21.14-.06-.45.08-.24c-.07.01-.12-.06-.14-.21l-1.44-1.27.11-.02c-.25-.15-.38-.29-.4-.4l-.21.14c-.02-.17-.17-.37-.43-.62-1.34-.32-2.02-.56-2.04-.73l-.34.05-1.39-.14c.01.07-.02.12-.09.13l-.34.05h-.8c.01.08-.02.12-.09.13l-.24-.08c-.59.16-.87.28-.86.35-1.19.17-1.77.41-1.72.71-.89.13-2.48.97-4.77,2.52.01.07-.84.77-2.55,2.08-1.49,1.53-2.82,3.09-4,4.69-1.42,1.73-2.12,2.67-2.1,2.81-.28.16-.83,1.29-2.27,3.37l-.41.49c-.78,1.13-1.01,1.49-1,1.5-.07.09-.14.15-.17.16-.73,1.4-1.23,2.12-1.51,2.16-.1.47-.26.72-.46.75-.28.8-.53,1.22-.73,1.25-.04.62-.26.95-.65,1.01-.66,1.24-.96,2.04-.91,2.41-.21.03-.4.25-.59.66-.4.51-.9,1.5-1.51,2.96-.3.8-.51,1.21-.62,1.23.01.07.05.11.13.09-.45.56-.67.9-.65,1.01l-.27.5c-.43.69-.63,1.17-.59,1.45-.13.04-.35.37-.65,1.01-.26.47-.39.87-.4,1.2-.08.01-.12-.02-.13-.09-.11.02-.33.35-.65,1.01-.48.98-.79,1.48-.92,1.5-.09.45-.31.98-.68,1.58-.07.31-.2.48-.38.51-.32.67-.66,1.22-1.02,1.63l-.24-.08.34-3.13-.11.02c.25-1.44.73-2.87.59-3.8l.49-3.12.4-1.69.74-3.69.66-2.61s.73-7.19.88-10.51c.14-3.04.93-5.8-3.42-6.94-1.53-.4-5.28,1.06-5.28,1.06,0,0-1.09.6-1.17.66-.04.03-.07.05-.11.08-.32.18-.63.42-.94.72-.21.19-.46.43-.77.75-.44.45-1.57,1.52-1.95,2.07l-1.51,1.65-1.8,2.54-1.17,2.48-.3.53h-.05s.01.04.02.05l-.25.44-.14.12.04.05-1.09,1.93s-.06.07-.06.12l-.15.36-.05.04v.05s-1.3,3.18-1.3,3.18l-2.32,4.07-.3.47-.23.14.08.1-1.57,2.44-.57,1.71-.21.38s-.01,0-.02,0c0-.02,0-.04.02-.06-.27.41-.45.7-.43.84-.36.38-.31.24-.37.61-.17.02-2.36,4.39-3.44,6.22-1.2,1.92-1.86,2.89-1.97,2.91-1.1,1.85-1.82,2.91-2.16,3.16-.61,1.04-1.09,1.64-1.45,1.81-.23-1.56.17-21.01.51-21.29.02-.65.21-1.44.57-2.36.47-.47.65-1.03.56-1.68l-.05-.33c-.05-.37-.22-.73-.5-1.07l.11-.02c-.03-.22-.28-.61-.74-1.15-.63-.67-.95-1.08-.98-1.23-1.16-.69-1.76-1.09-1.77-1.22-.56-.3-.47-.87-1.45-1.72-.38-.13-.64-.33-.77-.57-1.22-.56-.14-.97-.18-1.21-.41.06-.98.03-1.72-.09l-.11.02-.54.19c-.01-.07-.05-.11-.13-.09-.71.33-1.06.57-1.04.72-.07.01-.12-.02-.13-.09-.88.51-1.31.91-1.31,1.22-.28.16-.41.33-.38.51l-1.17-.17c.04.28-.03.59-.2.94-.4,1.41-.58,2.31-.52,2.7-.24.97-.41,1.9-.5,2.81-.22,1.51-.62,21.95-.54,24.26.1.14.15.25.16.32-.11.32-.12.74-.05,1.26l.06.45.14.21-.11.02c.01.08.06.18.16.32v.69s0,.11,0,.11c.32,2.23.69,3.7,1.09,4.4l-.11.02c1.56,4.49,2.28,6.49,5.55,6.02l.45-.06c.84-.12,1.67-.39,2.5-.82.67-.1.83-1.23,2.19-3.41.36-.3.62-.6.78-.91l.68-1.58c.09-.7.59-.78.7-.79-.02-.15.76-1.05,1.91-3.04l1.53-2.85c.15-.02.4-.4.75-1.13,1.3-2.05,3.49-6.64,3.45-6.9.52-.63.77-1,.75-1.14l.92-1.68c-.01-.07.8-1.37.65-1.35l.55-1.28.22-.67.63-.64,1.17-2.43,1.13-1.89.94-1.94.28-.91.1-.02c-.02-.08-.01-.2.03-.38l.97-2.21.73-1.25.75-1.85.14-.04c-.02-.08-.01-.2.03-.38l.77-1.9,1.64-2.39.34-.45h0s.09.4.09.4l-.1.3c.02.13.1.18.21.18l.11.45-.26,1.23s-.08.07-.12.07l.02.11.05.07-.03.15h-.1s.04.28.04.28l-.11.51s-.08.05-.15.06c-.12,1.04-.28,1.71-.51,2.01l-.57,2.77-.64,2.88c-.07.01-.53,2.2-.69,2.68-.21,1.4-1.25,5.15-1.36,5.17-.16,1.03-.47,2.21-.68,2.83l.14.21c-.23.39-.32.83-.27,1.29l-.41,1.88.03.22.15.21c-.07.01-.23.53-.46,1.55.05.35-.03,1.09-.25,2.2.06,1.97.04,3.19-.04,3.66l.14.21-.08.24.11-.02-.03.58.11.78c.05.35.14.72.27,1.1-.03.29-.02.63.03,1.02l.13.89.22-.03-.08.24.15,1c.11-.02.37.21.78.69l-.33.05c.24.86.69,1.63,1.36,2.31.83,1.02,1.98,1.61,3.45,1.78l1.9-.28c1.16-.93,1.85-1.41,2.07-1.44.81-1.11,1.37-1.68,1.69-1.73.33-.73.69-1.13,1.08-1.18.32-.54-.05-1.81,1.24-2.19.01.07.05.11.13.1.16-.37.36-.78.62-1.23l.86-1.42.11-.02c.36-.64.55-1.2.56-1.68.21-.13.3-.29.27-.5.28-.16.41-.33.38-.51.18-.35.26-.59.24-.72.11-.02.46-.52,1.03-1.52.69-1.66,1.16-2.64,1.4-2.94.01-.31.1-.47.27-.5.28-.8.49-1.21.62-1.23.48-1.44.9-2.18,1.27-2.24l-.02-.11-.14-.21c.13-.25.23-.37.29-.38.28-1.09.54-1.66.78-1.71-.04-.24.03-.59.19-1.05l.24.08c-.03-.22.04-.54.21-.94l-.34.05-.02-.11.22-.03.24.08c.23-.24.41-.61.52-1.1-.01-.07-.13-.09-.35-.06l-.02-.11c.52-.08.74-.37.67-.89.29-.61.43-.97.41-1.09l-.11.02-.02-.11.24.08.22-.03c-.05-.35.04-.75.28-1.18l-.15-.21-.21.14c.04-.27.05-.43.05-.46l.22-.03c.01.07.06.18.16.32-.07.01-.11.05-.1.13l.11-.02c.15-.02.21-.11.19-.26l-.27-.3.11-.02.24.08c.41-.33.6-.58.57-.77l-.11.02c.18-.31.27-.51.25-.61l.24.08c-.04-.26.58-.61.74-1.12,1-1.46,1.52-2.44,1.46-2.87l.24.08.91-1.77c.01-.31.14-.48.38-.51.1-.39.46-.62.68-.65.29-.73.42-1.1.77-1.15.28-.55.14-.08,1.05-1.51.36-.15.51-.4.46-.75.07-.01.12.02.13.1.49-.39.88-.87,1.16-1.42l.24.08c.21-.14.3-.27.29-.38.07-.01.42-.48,1.05-1.41.15-.4.38-.63.7-.67.18-.23.63-.76,1.37-1.57.65-1.01,1.07-1.52,1.26-1.55.68-.93,1.11-1.41,1.27-1.44l1.64-2.06c1.29-1.33,2.06-2.01,2.33-2.05.21-.26.95-.67,2.22-1.23l.14.21.08.56c-.4,3.04-.84,5.73-1.34,8.06.07-.01.12.02.13.1l.02.11c-.16.44-.44,1.7-.82,3.77l.14.21c-.19.03-.28.19-.27.5-.24.97-.35,1.48-.35,1.53l.11-.02c.03.2-.12.76-.44,1.66l.11-.02c-.12.25-.29.88-.52,1.9l.14.21c.03.22-.03.35-.17.37.09.6-.14,1.69-.66,3.29-.33,2.42-.63,4.03-.9,4.81-.45,2.98.05,1.29-.38,3.16-.01-.02-.03-.03-.05-.03,0,.07,0,.16,0,.23,0,0,0,0,0,0,0,0,0,.01,0,.02.02.69,0,1.44-.09,2.27.07-.01.12.02.13.09-.07.01-.11.05-.09.13l.08.56-.22.03.08.56.45-.06c-.05.14-.07.29-.05.46l-.22.03c-.01-.07.02-.12.1-.13-.02-.13-.1-.19-.26-.19l-.11.02c.04.24.02.43-.03.58l.11-.02c.01.07-.01.19-.06.35l.14.21-.11.02c-.02.54-.09.81-.22.83.01.07.06.18.16.32l-.03.58c.02.15.11.21.26.19-.05-.37.07-.58.37-.62.07-.01-.11,2.11.05,2.17-.01-.07.02-.12.1-.13.02.17.08.31.18.43-.13.02-.27.38-.41,1.09l.05.33.11-.02-.03-.22.11-.02c.15-.02.23.04.26.19-.21.03-.34.43-.4,1.2l.02.11c.22-.03.35.03.37.17l-.46.75.02.11c.3,0,.47.09.5.27-.22.03-.29.35-.21.94l.19.54c-.22.03-.31.24-.25.61l.02.11c.02.15.11.21.26.19l-.16.48.11-.02c.01.07-.02.12-.1.13.19.29.3.51.32.64l-.08.24.3.53-.08.24c.01.07.06.18.16.32-.07.01-.11.05-.09.13l.02.11.14.21c-.06.24-.16.36-.29.38.18,1.27.35,1.89.5,1.87l-.08.24.05.33c.01.07.05.11.13.1.03.22.27.8.71,1.72-.07.01-.18.06-.32.16l-.02-.11-.3.27c.1.29.2.43.29.41.23.65.46.96.7.92l.08.56.14.21-.11.02.54.61.02.11c.06.45-.05.69-.35.74l.03.22.11-.02c.43-.06.76.12.99.54l.1.67-.22.03.03.22c.41.23.63.42.66.59l-.08.24.24.08.11-.02c-.04-.3.05-.46.27-.5.11-.02.24.12.4.4-.07.01-.18.06-.32.16-.01-.07-.05-.11-.13-.09l-.22.03c.4.7.79,1.03,1.17.97.07-.01.09-.13.06-.35l.11-.02c.41-.06.69.05.85.33l.03.22c-.39-.1-.67-.13-.81-.11.31.71.55,1.06.72,1.04l.21-.14.03.22.11-.02.21-.14c.02.17.08.31.18.43.07-.01.11-.05.1-.13l.22-.03.02.11-.22.03.02.11h.69s.21-.13.21-.13c.03.22.31.3.83.22-.01-.07.02-.12.1-.13.02.17.08.31.18.43.15-.02.21-.11.19-.26l.61.25c-.01-.07.02-.12.1-.13.2-.03.44.01.7.13l.21-.14-.08.24,1.56-.23.03.22.22-.03-.03-.22c.07-.01.38-.02.91-.02l.54-.19c.01.07.05.11.13.1,1.57-.42,2.39-.8,2.46-1.16l.24.08c-.02-.15.04-.23.19-.26.74-.26,1.57-1.1,2.48-2.53.19-.64.45-1.21.78-1.71l-.14-.21.34-.05ZM190.96,68.84l.05.33-.22.03-.02-.11c-.02-.13.04-.22.19-.26ZM194.31,49.43l.02.11c.02.15-.04.23-.19.26l-.05-.34.22-.03ZM197.61,35.26l.11-.02c-.05.16-.07.28-.06.35l-.11.02-.02-.11.08-.24ZM196.98,37.98l-.11.02-.03-.22.33-.05c.02.15-.04.23-.19.26ZM197.21,34.86l.11-.02.02.11-.08.24.14.21c-.12.21-.18.37-.16.48l-.24-.08.2-.94ZM196.62,37.12l.33-.05c.01.07.06.18.16.32l.02.11c-.17.02-.32,0-.46-.05l-.21.14-.11.02-.02-.11c.08-.24.17-.37.29-.38ZM196.49,40.9c-.03-.22.02-.35.17-.37-.01-.07-.05-.11-.13-.1l.24-.72-.14-.21.11-.02-.19-.54-.02-.11.11-.02c.02.11.11.25.29.41.07-.01.11-.05.1-.13l.11-.02c.02.15-.04.23-.19.26.01.07.05.11.13.09l-.03.58c-.07.01-.12-.02-.13-.1-.11.02-.2.18-.27.5.07-.01.12.02.13.1l.02.11c.02.15-.04.23-.19.26.01.08.05.11.13.1l.02.11c-.07.01-.12-.02-.13-.09l-.21.14c-.02-.15-.11-.21-.26-.19l-.02-.11.11-.02.24.08ZM196.25,42.42c.02.15-.04.23-.19.26l-.11.02-.03-.22c.07-.01.18-.06.32-.16l.02.11ZM196.18,39.57c.01.07-.02.12-.1.13.01.07.05.11.13.09l.02.11c-.13.02-.22-.04-.26-.19l-.02-.11.22-.03ZM195.95,41.89l.11-.02-.08.24.22-.03.02.11-.11.02-.24-.08.08-.24ZM195.79,43.17c.07-.01.19.01.35.06.16-.48.23-.76.22-.83l.24.08.11-.02c-.08-.29-.21-.43-.4-.4.06-.14.07-.3.05-.46l.24.08-.08.24c.02.15.11.21.25.19.05.37-.1.58-.48.64l.02.11.22-.03.03.22c-.15.02-.36.17-.62.43-.02-.15-.11-.21-.26-.19l-.02-.11.11-.02ZM194.9,44.89c-.01-.07-.05-.11-.13-.1l-.02-.11c.15-.02.23.04.26.19.02.15-.04.23-.19.26l-.11.02c-.02-.13.04-.22.19-.26ZM193.75,45.63c.15-.02.23.04.26.19l-.34.05.08-.24ZM163.39,53.17c-.13.02-.21-.04-.25-.19l.33-.05-.08.24ZM179.97,65.18l-.05-.34.22-.03.02.11c.02.15-.04.23-.19.26ZM182.49,83.53c.05-.16.07-.28.06-.35l.11-.02c.11-.02.24.12.4.4l.02.11c-.21-.12-.4-.17-.59-.14ZM187.36,90.35l-.02-.11c-.02-.13.04-.22.19-.26l.05.34-.22.03ZM191.02,64.5l.02.11-.11.02-.24-.08-.02-.11c.16.05.28.07.35.06ZM191.28,61.61l.02.11c-.07.01-.18.06-.32.16l-.33.05-.02-.11c.24-.04.42-.1.54-.19-.01-.07-.05-.11-.13-.09l-.02-.11c.15-.02.23.04.25.19ZM190.87,60.3l.22-.03.02.11c-.15.02-.21.11-.19.26l-.11.02-.02-.11.08-.24ZM191.63,58.48l-.21.14.02.11c-.13.02-.22-.04-.26-.19l-.03-.22c.15-.02.23.04.25.19l-.02-.11c.07-.01.18-.06.32-.16v-.09c-.06,0-.1-.01-.13,0l.08-.2-.04-.26.16-.02.05-.12h.08s-.02.1-.03.15c0,0-.01,0-.02,0v.03c-.01.11-.03.22-.05.32l.11.16c-.05-.02-.1-.03-.14-.04-.01.05-.02.1-.03.15.04.05.11.12.22.23l-.09.2c-.05-.05-.11-.13-.17-.21,0,.03-.01.07-.02.1l-.07-.15ZM191.56,55.64c.15-.02.23.04.25.19.02.15-.04.23-.19.26l-.11.02c.05-.14.07-.3.05-.46ZM191.79,58.8l-.08.24v-.26s.08.03.08.03ZM191.71,59.04h0s0,0,0,0c0,0,0,0,0,0ZM192.5,56.64c-.02.06-.05.11-.07.17-.01-.04-.03-.09-.04-.15l-.11.02h0s0,0,0,0l.11-.02-.08.24.02.13c-.03.08-.06.15-.09.21l-.07-.09.04-.23h0s0,0,0,0l.06-.34.23.07ZM192.41,55.64s-.05-.06-.07-.11h.08s0,.07,0,.11ZM192.63,49.67l.11-.02-.08.24.22-.03.02.11-.33.05-.02-.11.08-.24ZM192.62,51.95l.24.08c-.02-.13-.12-.31-.3-.53.22.2.38.29.5.27l.03.22-.54.19-.03-.22.11-.02ZM192.41,55.52h-.07s-.02-.1-.02-.1c.06,0,.08.04.09.1ZM192.22,55.43l-.02-.11-.03-.22c.05,0,.06.12.06.34ZM192.11,53.17l.03.22-.11.02c-.01-.07-.06-.18-.16-.32l.24.08ZM191.89,56.39l.11-.02-.13-.89.22-.03c.01.07-.02.12-.09.13l.15.48c-.02.13-.04.26-.06.39-.03.01-.04.03-.08.04l-.24-.08-.03-.22.11-.02.03.22ZM191.67,50.15l.11-.02.03.22c-.22.03-.32.12-.3.27l-.11.02-.02-.11c.08-.24.17-.37.29-.38ZM191.29,56.93l.03.22-.08.24.22-.03.02.11c.02.15-.04.23-.19.26-.02-.17-.08-.31-.18-.43.07-.01.11-.05.09-.13l-.14-.21.22-.03ZM190.86,57.91l.11-.02c.01.07.06.18.16.32-.07.01-.12-.02-.13-.1-.08.01-.11.05-.1.13l-.24-.08c-.02-.13.04-.21.19-.26ZM189.59,90.82l-.24-.08c.01.07-.02.12-.1.13l-.02-.11.08-.24c.24.08.37.17.38.29l-.11.02ZM189.61,72.12l-.11.02-.02-.11.08-.24.22-.03.02.11c-.15.02-.21.11-.19.26ZM189.98,57.35c-.01-.07-.07-.18-.16-.32l.24.08.03.22-.11.02ZM190.15,61.66l.11-.02.02.11-.08.24-.11.02c.05-.16.07-.28.06-.35ZM190.25,63.93l-.11.02c.05-.14.07-.3.05-.46l.24.08s-.05.16-.18.37ZM190.58,60.69l.03.22c.07-.01.11-.05.09-.13l.11-.02c-.05.16-.07.28-.06.35l-.22.03-.06-.45.11-.02ZM190.54,65.94c.21-.13.3-.29.27-.5l.11-.02c.02.13.12.31.31.53-.14.1-.25.15-.32.16l.14.21-.22.03-.03-.22-.11.02-.21.14c.05-.16.07-.28.06-.35ZM190.63,75.16l-.02-.11c-.02-.13.04-.22.19-.26l.02.11c.02.15-.04.23-.19.26ZM190.85,76.73l.08-.24c-.07.01-.12-.02-.13-.09l.22-.03c.15-.02.23.04.26.19-.15.02-.21.14-.17.37-.13.02-.22-.04-.26-.19ZM191.34,78.48c-.13.02-.22-.04-.26-.19l.33-.05.03.22-.11.02ZM191.85,79.66c-.02-.13.04-.22.19-.26l.05.33-.24-.08ZM193.57,83.63l-.06-.45c.15-.02.24.04.26.19.02.15-.04.23-.19.26ZM194.22,84.22l-.02-.11c.07-.01.12.02.13.09.07-.01.18-.06.32-.16l.11-.02.05.33-.22.03-.37-.17Z"/>
    <path class="cls-2" d="M191.61,58.37c.04.06.07.11.1.16.01-.07.03-.14.04-.21-.03-.03-.05-.06-.05-.08h0l.02.11-.11.02Z"/>
    <path class="cls-2" d="M191.56,59.2s0-.02,0-.03h0s0,.02,0,.03Z"/>
    <path class="cls-2" d="M191.46,58.92s-.06.05-.11.05l.02.11v.02s.1-.08.1-.08l-.02-.1Z"/>
    <path class="cls-2" d="M192.21,56.91h.1s-.03-.24-.03-.24c-.02.1-.04.17-.07.23h0Z"/>
    <polygon class="cls-2" points="191.4 58.51 191.42 58.63 191.42 58.63 191.4 58.51 191.4 58.51"/>
    <path class="cls-2" d="M191.81,59.71c-.01-.07-.07.01,0,0h0Z"/>
    <path class="cls-2" d="M191.82,58.05l-.03-.04-.02-.11c-.01-.09.03-.15.1-.19l-.02-.05h-.07s-.12.3-.12.3l.03.21s.06.01.1.02c0-.04.02-.08.03-.13Z"/>
    <path class="cls-2" d="M192.47,56.42l.13-.02c.07-.18.15-.35.22-.52-.03-.05-.06-.09-.09-.15l-.26.68Z"/>
    <polygon class="cls-2" points="193.01 55.43 193 55.37 192.88 55.33 192.88 55.34 192.9 55.45 193.01 55.43"/>
    <path class="cls-2" d="M197.59,39.03l.34-.05-.03-.22c-.14.1-.25.15-.32.16l.02.11Z"/>
    <path class="cls-2" d="M196.5,44.89c-.07.01-.11.05-.1.13-.07.01-.12-.02-.13-.09-.13.02-.19.1-.19.26l.02.11c.12-.09.26-.15.43-.18l-.03-.22Z"/>
    <path class="cls-2" d="M193.91,82.1l-.21-.65-.11.02c.02.17,0,.32-.05.46l.37.17Z"/>
    <path class="cls-2" d="M192.57,58.69l.11-.02c-.01-.07.01-.19.06-.35-.02-.13-.1-.19-.25-.19l.08.56Z"/>
    <path class="cls-2" d="M195.47,48.8l-.14-.21.11-.02-.14-.21-.06-.45.17-.37-.05-.34c-.43.21-.63.4-.61.54l-.24-.08.03.22-.22.03-.03-.22-.22.03.42.51-.22.03-.03-.22-.21.14c.18.16.27.3.29.41l.11-.02-.03-.22.22-.03c.03.22.12.32.27.3l.11-.02-.14-.21-.03-.22.17-.37.11-.02c.01.07-.02.12-.1.13.01.07.06.18.16.32-.1.34-.15.57-.13.7l.02.11.45-.06-.03-.22Z"/>
    <path class="cls-2" d="M192.76,57.63l-.11.02c.01.07-.01.19-.06.35l.34-.05c-.1-.14-.15-.24-.16-.32Z"/>
    <path class="cls-2" d="M193.75,80.98l-.37-.97-.45.06.02.11.22-.03c.29.57.48.84.58.83Z"/>
    <path class="cls-2" d="M193.98,51.87l.43-.18-.02-.11-.11.02c-.22.03-.32.12-.3.27Z"/>
    <path class="cls-2" d="M194.24,47.38c.02.15.11.21.26.19l.11-.02c-.04-.3,0-.46.16-.48-.09-.14-.15-.24-.16-.32l-.11.02c.05.37-.03.57-.25.61Z"/>
    <path class="cls-2" d="M195.2,50.89l.02.11c.15-.02.21-.11.19-.26l-.02-.11c-.13.02-.19.1-.19.26Z"/>
    <path class="cls-2" d="M193.02,80.63l.03.22.22-.03-.06-.45c-.13.02-.19.1-.19.26Z"/>
  </g>
  <g>
    <path class="cls-2" d="M212.49,42.46c0,1.26.14,2.2.43,2.8l.27.56.13.08.1.09c.59.54,1.69.69,3.29.43.62.14,1.48-.28,3.92-1.82l.83-1.95c-.14-1.01-.41-1.62-.74-2.07l-.07-.13h.31c-.04-.07-.13-.16-.29-.28l.02-.28c-.11-.23-.34-.49-.7-.8.08-.03.11-.09.07-.17l-.39.16.02-.28-.05-.11-.28.38-.13.05c-.04-.07-.01-.13.07-.17l-.46-.62-.13.05-.2.22c-.04-.07-.01-.13.07-.17-.03-.06-.33-.25-.9-.58l-.13.05-.2.22c-.66-.52-1.19-.75-1.58-.7.04.08.01.13-.07.17l-.13.05c-.04-.07-.01-.13.07-.17-.06-.13-.19-.17-.37-.12l-1.8.74-.05-.11.26-.11c-.06-.13-.19-.17-.37-.12-.15.06-.21.36-.19.89.09-.04.15-.02.18.06l-.13.05c-.51,1.13-.71,1.98-.61,2.55l.13-.05.05.11h-.31c.1.2.12.55.05,1.05ZM219.6,39.26l.13-.05c.07.15.02.26-.15.33-.05-.04-.09-.07-.14-.11.02-.06.07-.12.16-.17Z"/>
    <rect class="cls-2" x="216.74" y="88.52" width=".33" height=".22" transform="translate(-17.1 76.62) rotate(-19.29)"/>
    <path class="cls-2" d="M220.24,81.65v.09c.05,0,.09-.03.09-.09.06,0,.09.03.08.09.25-.24.43-.35.55-.35l-.08-.18h.09s.17.1.17.1v-.09s.18.1.18.1h.09c0-.06-.02-.09-.08-.09.12-.36.25-.54.38-.54.15-.36.31-.54.47-.53v.18s.08,0,.08,0c0-.06.04-.15.1-.27h-.09c0-.06.03-.09.09-.09l-.08-.18c-.12,0-.6.35-1.46,1.05-.01.24-.2.51-.57.8Z"/>
    <path class="cls-2" d="M221.94,81.25l.08.18c.12,0,.18-.06.19-.18-.06,0-.15-.03-.26-.1v.09Z"/>
    <path class="cls-2" d="M222.68,80.45c.11-.06.22-.08.36-.08,0-.17-.04-.35-.15-.55-.1,0-.16.06-.19.18v.09s.17,0,.17,0c0,.03-.07.12-.19.27v.09Z"/>
    <path class="cls-2" d="M222.46,79.62h.09s-.01.28-.01.28h.18s0-.09,0-.09c.02-.3.17-.45.46-.44l-.08-.18c-.29,0-.45.11-.46.35-.06,0-.09-.03-.08-.09l-.18.09v.27s.07,0,.07,0v-.18Z"/>
    <path class="cls-2" d="M223.48,78.65s.12-.06.27-.17v.27s.07,0,.07,0l.03-.55c-.2.18-.35.26-.45.26l.08.19Z"/>
    <path class="cls-2" d="M223.11,79.01v.09s.45-.26.45-.26l-.02.36h.18c0-.06-.02-.15-.07-.27l.1-.18c-.19,0-.33-.04-.43-.1,0,.09-.07.21-.2.36Z"/>
    <path class="cls-2" d="M222.45,81.63l-.18.09h-.09s0-.18,0-.18h-.18c0,.06.02.09.08.09v.09c-.06,0-.09-.03-.09-.09l-.18.09h-.09s.19-.27.19-.27v-.09c-.05,0-.14-.03-.25-.1l-.37.35.08.18-.1.18c.25,0,.49-.05.71-.16.12,0,.17.07.17.19-.12,0-.27.11-.46.35l.08.18c-.23,0-.39.11-.46.35h.26s0,.1,0,.1h-.35c-.1-.01-.16-.08-.17-.2v-.09s.1-.18.1-.18c-.06,0-.08-.15-.06-.46h-.18s-.01.19-.01.19h-.14s0-.06-.03-.11l-.04.02c.11-.24.28-.36.53-.37-.08-.18-.17-.27-.26-.27,0,.18-.12.3-.36.37,0-.06-.03-.09-.09-.09h-.09c0,.06-.03.15-.09.27h.09s0,.18,0,.18h-.09s0-.18,0-.18h-.09s-.36.28-.36.28l.08.18-.8.73h.09s0,.08.02.13c-.13.04-.28.11-.47.24,0,.06.03.09.09.09v.27s-.09,0-.09,0v-.27s-.08,0-.08,0l-.09.37-.17-.09c0,.06-.02.09-.03.13-.05-.02-.09-.07-.12-.14l-.72-2.11c-.12-.35-.08-.6.1-.74-.1-.06-.22-.3-.36-.7l-.1.04c.05.14,0,.24-.14.28l.18.18.11.32-.25-.03-.18.18c-.02-.07-.1-.16-.21-.28.07-.02.02-.28-.15-.78.14-.05.24,0,.28.14l.18-.18.11-.04.25.03-.07-.21c-.18-1.75-.14-2.66.12-2.75-.02-.07-.07-.09-.14-.07l.07-.49c-.07.02-.12,0-.14-.07l.21-.07-.14-.42c.76-7.56,1.75-14.29,1.97-14.6-.12-1.06.3-2.66.44-2.71l-.33-3.07-.68-2.01-.28-.49c.07-.02.09-.07.07-.14-.28-.36-.47-.68-.57-.98-1.18-1.09-2-1.56-2.48-1.4-.8-.63-1.51-.98-2.12-1.05l-1.94-.17-.53.18c.13.37.05.95-.24,1.73-.77,2.58-1.67,4.97-1.89,6.83-.25,2.12-1.81,9.3-1.8,15.39-.17,1.18.14,3.35.92,6.52.02.07.1.16.21.28-.07.02-.09.07-.07.14l.39,1.16c.44,1.3,1.22,2.65,2.32,4.05,1.15,1.48,2.63,2.47,4.43,2.97.21-.07.53-.3.95-.68.12.12.19.21.21.28.14-.05.19-.14.14-.28l.53.17-.07-.21c.12-.07.21-.14.29-.21.02-.01.04-.03.05-.05.13-.13.19-.26.15-.38l.17-.06v.08s.26,0,.26,0v-.07s.03,0,.03,0c-.02-.07-.02-.19,0-.35l.17.02v.03s.02-.02.04-.03h.03s.74-.25.74-.25l.18-.18.04.11.11-.04c-.04-.34,0-.58.08-.74.02,0,.06-.02.08-.02v-.08s.07-.06.12-.08c-.02-.06-.06-.07-.1-.07v-.14s0-.02,0-.02c.03-.05.08-.1.14-.16h.22s0-.17,0-.17c0,0,0,0,0,0l.04.11c.07-.02.09-.07.07-.14l.11-.04-.03.25c.39-.13.6-.46.64-.97h.1c0-.13.04-.25.11-.36-.06,0-.09-.03-.08-.09v-.09s.18.1.18.1h.09s0-.09,0-.09l-.08-.18c.31-.37.47-.61.48-.72l.17.1h.18s.01-.27.01-.27l.17.1c.28-.3.46-.44.55-.44,0-.06-.02-.09-.08-.09v-.09s.18.1.18.1c0-.18.1-.27.28-.27,0-.06-.02-.09-.08-.09l.1-.18c-.24,0-.35-.1-.34-.28ZM216.64,79.37l.1-.04.18-.18c.02.07,0,.12-.07.14l.18.18c.05.14,0,.23-.14.28l-.07-.21-.1.04.07.21-.11.04-.11-.32-.1.04-.18.18c.03-.15.02-.3-.04-.46l.39.1ZM216.29,80.43l-.04-.11.03-.25c-.07.02-.12,0-.14-.07l.11-.04c.14-.05.24,0,.28.14l.04.11c-.07.02-.16.1-.28.21ZM220.91,82.34v.07s-.09,0-.09,0c0,0-.01-.03-.01-.04.03,0,.07-.02.1-.02ZM219.72,83.16c0-.08.04-.12.1-.15.02.08.05.13.07.19v.05s-.18-.09-.18-.09ZM220.94,83.5h-.18s.01-.28.01-.28h-.09c0,.12-.07.18-.19.17v.09c-.01.12.04.18.16.19v.09c-.06,0-.09-.03-.09-.09l-.45.26c0,.06.02.09.08.09-.04.05-.07.1-.1.15-.03-.03-.05-.07-.08-.1v-.11c.12-.08.18-.23.13-.48l-.25-.03-.02-.07s0,0,0,0c0,0,0,0,0,0l-.03-.08s.04-.01.06-.03c.06.11.13.2.23.22,0-.14.04-.26.11-.36h-.09s0-.09,0-.09l.17.1c0-.09.07-.21.2-.36l-.07-.17s.02-.04.03-.05c.02-.01.05-.02.06-.05h0s.09-.08.14-.1c.02,0,.02.02.04.02-.08.45-.19.75-.31.9h.09s.37-.35.37-.35h.09s-.1.18-.1.18v.09s.17,0,.17,0c-.06.12-.1.21-.1.27ZM222.32,82.27h-.09c0-.11.07-.17.19-.18h.09c0,.12-.07.18-.19.18Z"/>
    <path class="cls-2" d="M219.5,85.65c0,.12.05.18.17.19v-.27s-.16,0-.16,0v.09Z"/>
    <path class="cls-2" d="M224.04,79.76v.09s.17,0,.17,0v-.27c-.09,0-.15.06-.17.18Z"/>
    <path class="cls-2" d="M223,81.1c-.06,0-.09-.03-.08-.09l-.18.09-.37.26v.18s.43.01.43.01v-.18s.19,0,.19,0c0,.06-.03.09-.09.09l.08.18.18-.09c0-.06-.02-.09-.08-.09.19-.34.3-.58.3-.72v-.18s-.08,0-.08,0c0,.12-.1.3-.29.54Z"/>
  </g>
</svg>